<?xml version="1.0" encoding="UTF-8"?>
<svg width="1015px" height="770px" viewBox="0 0 1015 770" version="1.1" xmlns="http://www.w3.org/2000/svg" xmlns:xlink="http://www.w3.org/1999/xlink">
    <title>未命名</title>
    <defs>
        <filter id="filter-1">
            <feColorMatrix in="SourceGraphic" type="matrix" values="0 0 0 0 1.000000 0 0 0 0 0.400000 0 0 0 0 0.000000 0 0 0 1.000000 0"></feColorMatrix>
        </filter>
    </defs>
    <g id="页面-1" stroke="none" stroke-width="1" fill="none" fill-rule="evenodd">
        <g id="TradeON-Summit-2020">
            <g id="编组-3" transform="translate(0.970521, 0.092899)" fill="#C29D4D" fill-rule="nonzero">
                <g id="编组-2" transform="translate(0.029479, 0.907101)">
                    <path d="M763.924951,113.924904 C763.924951,113.6859 764.952976,108.188805 766.297316,101.735693 C771.042047,77.5962736 775.075068,64.6900495 782.508479,49.393784 C794.686622,24.0593441 811.688574,9.24108685 835.570385,3.18631506 C842.76656,1.27428186 855.656412,-0.558083292 856.4472,0.158929156 C856.684437,0.397933305 856.842594,6.69170925 856.842594,14.180506 C856.842594,26.1307134 856.605358,28.7597591 854.944702,34.6551948 C848.539316,57.8385973 832.960783,76.7995931 806.785686,93.0518756 C799.035959,97.9116266 780.689666,107.392124 770.80481,111.614531 C764.241266,114.482581 763.924951,114.562249 763.924951,113.924904 Z" id="路径" transform="translate(810.383772, 57.124617) scale(-1, 1) rotate(-180.000000) translate(-810.383772, -57.124617) "></path>
                    <path d="M243.981547,114.043913 C242.241813,113.167564 235.59919,110.06051 229.272882,107.033124 C184.435177,85.6820865 161.739549,61.6223359 156.20403,29.6754479 C154.938768,22.7443276 154.622453,10.9534562 155.49232,4.58001225 L156.045872,0.835613914 L159.683499,1.31362221 C174.708479,3.30532345 183.328074,5.6156969 192.580298,10.2364438 C215.7504,21.9476471 231.566169,45.0513815 241.134709,81.3800118 C243.269838,89.3468168 248.330884,113.087896 248.330884,114.999929 C248.330884,115.876278 247.619174,115.716942 243.981547,114.043913 Z" id="路径" transform="translate(201.666194, 58.179972) scale(-1, 1) rotate(-180.000000) translate(-201.666194, -58.179972) "></path>
                    <path d="M889.343999,160.377442 C879.06375,139.504413 873.132836,123.969143 869.732446,108.593209 C867.201923,97.2803467 867.201923,78.1600145 869.732446,68.5201804 C873.370073,54.8969439 880.170853,43.1857406 891.162813,31.6338734 L897.805436,24.623085 L900.96859,27.6504709 C909.509105,35.85628 918.207778,50.5948692 921.687247,62.5450767 C925.166716,74.6546203 925.483031,92.2612596 922.478035,107.159185 C920.738301,115.763334 915.202782,132.25462 910.220814,143.408147 C906.108714,152.649641 896.223859,172.088645 895.591228,172.088645 C895.353992,172.088645 892.586232,166.830554 889.343999,160.377442 Z" id="路径" transform="translate(896.183289, 98.355865) scale(-1, 1) rotate(-180.000000) translate(-896.183289, -98.355865) "></path>
                    <path d="M111.366325,163.165823 C94.9179252,131.935947 87.7217504,108.51354 87.7217504,86.6844946 C87.7217504,75.7699715 88.5125388,69.8745358 91.1221407,61.5093906 C94.4434522,50.5948677 102.351337,37.4496395 110.180142,29.6421707 L114.4504,25.419764 L120.539471,31.7135399 C128.13104,39.4413408 132.796692,46.0537889 137.304186,55.3749507 C141.81168,64.6961126 143.86773,73.1409258 144.500361,84.5334573 C145.528386,104.928478 139.281157,127.394868 123.860782,159.18242 C120.144077,166.671217 116.980923,172.885325 116.822765,172.885325 C116.664608,172.885325 114.213163,168.503582 111.366325,163.165823 Z" id="路径" transform="translate(116.165200, 99.152544) scale(-1, 1) rotate(-180.000000) translate(-116.165200, -99.152544) "></path>
                    <path d="M781.322297,209.232669 C781.322297,207.400304 791.839784,176.807773 795.002938,169.318976 C809.316209,135.778727 827.899737,116.738064 853.284046,109.408603 C865.224952,105.903209 884.52019,104.389516 885.390057,106.859225 C885.627294,107.49657 885.469136,112.276653 884.994663,117.455076 C881.277957,158.324786 856.051806,183.977898 800.30122,203.655906 C786.225185,208.674993 781.322297,210.109018 781.322297,209.232669 Z" id="路径" transform="translate(833.410674, 157.558583) scale(-1, 1) rotate(-180.000000) translate(-833.410674, -157.558583) "></path>
                    <path d="M217.09474,206.184169 C185.700439,195.50865 167.11691,185.390808 151.933772,170.652218 C136.038924,155.276285 128.526434,138.227322 126.944857,114.565911 L126.391305,106.280434 L137.383265,106.758443 C178.267027,108.590808 204.363046,132.092882 222.472102,183.399106 C226.03065,193.437281 231.170775,210.167571 230.77538,210.486243 C230.617223,210.565911 224.528152,208.653878 217.09474,206.184169 Z" id="路径" transform="translate(178.594101, 158.384540) scale(-1, 1) rotate(-180.000000) translate(-178.594101, -158.384540) "></path>
                    <path d="M950.155631,275.851969 C925.087637,244.38309 912.830416,221.677696 909.430026,200.24699 C908.006607,191.483505 908.797395,175.390559 911.011603,167.742426 C913.22581,159.934957 917.970541,149.737447 923.031587,142.089314 C927.539081,135.158193 926.748293,135.237861 934.339862,140.894293 C964.864296,163.679355 974.116521,198.653629 963.20364,249.322509 C961.305748,258.006326 955.374835,279.437032 954.663125,280.233712 C954.34681,280.552384 952.29076,278.560683 950.155631,275.851969 Z" id="路径" transform="translate(938.163102, 208.514706) scale(-1, 1) rotate(-180.000000) translate(-938.163102, -208.514706) "></path>
                    <path d="M57.5136314,281.924604 C56.8019218,280.729584 50.6337719,258.024189 49.052195,250.854065 C40.2744433,210.382696 44.5447009,179.790164 62.1002044,157.642447 C64.9470428,154.057384 69.1382216,149.516306 71.4315081,147.604272 C76.7297906,143.063193 84.0841235,137.48643 84.7958331,137.48643 C85.6657004,137.48643 92.1501657,147.843276 95.6296348,154.774397 C100.927917,165.529584 102.983967,173.576057 103.379362,186.163608 C103.695677,194.449086 103.537519,198.512156 102.509494,203.690579 C98.9509463,221.297218 91.5966138,236.832488 76.9670272,257.625849 C69.2173004,268.540372 57.9881045,282.641617 57.5136314,281.924604 Z" id="路径" transform="translate(74.078845, 209.718657) scale(-1, 1) rotate(-180.000000) translate(-74.078845, -209.718657) "></path>
                    <path d="M837.784593,320.669558 C839.840643,271.195699 850.27905,241.877856 872.18389,224.191549 C881.910588,216.38408 897.330963,208.974952 907.611213,207.301923 L910.853445,206.744246 L912.672259,214.153375 C915.28186,224.908562 915.360939,243.391549 912.751337,253.031383 C908.006607,270.71769 896.698332,287.846321 879.380065,303.700263 C870.048761,312.224744 852.572337,325.210636 840.315116,332.699433 L837.231041,334.611466 L837.784593,320.669558 Z" id="路径" transform="translate(875.950245, 270.677856) scale(-1, 1) rotate(-180.000000) translate(-875.950245, -270.677856) "></path>
                    <path d="M161.739549,326.724329 C145.92378,316.048811 139.439315,310.870388 128.684592,300.354205 C106.305279,278.445491 96.4995021,257.094454 97.5275271,232.158354 C98.0020002,220.447151 100.690681,207.859599 102.746731,207.859599 C108.440408,207.859599 126.312227,215.268728 135.327215,221.482836 C154.780611,234.628064 167.433226,258.926819 171.94072,291.351715 C173.443218,301.947566 175.024795,325.290305 174.629401,331.106072 L174.392164,335.328479 L161.739549,326.724329 Z" id="路径" transform="translate(136.072747, 271.594039) scale(-1, 1) rotate(-180.000000) translate(-136.072747, -271.594039) "></path>
                    <path d="M986.769136,376.676198 C961.305748,361.220596 944.857348,347.597359 934.49802,333.416447 C922.398956,316.845492 917.416989,300.832214 918.365935,281.871218 C918.76133,273.984081 920.501064,263.308563 922.082641,259.086156 L922.794351,257.253791 L928.171712,258.608148 C959.170619,266.734289 979.889277,288.643003 990.090447,324.334289 C993.016365,334.452131 996.021361,351.979102 997.128465,365.443003 C998.472805,380.978272 998.710042,383.766654 998.472805,383.766654 C998.393726,383.766654 993.095444,380.579932 986.769136,376.676198 Z" id="路径" transform="translate(958.403209, 320.510222) scale(-1, 1) rotate(-180.000000) translate(-958.403209, -320.510222) "></path>
                    <path d="M13.7830303,382.173291 C14.0202668,380.739266 14.4156611,376.118519 14.6528976,371.975781 C18.2905245,315.809806 36.1623433,280.9152 69.0591427,265.618934 C73.9620311,263.308561 87.405435,258.84715 89.3033273,258.84715 C90.0150369,258.84715 92.2292445,268.24798 93.4154272,276.374121 C94.6016099,284.18159 93.8108214,299.079515 91.9129291,306.24964 C85.5075427,329.751714 69.3754581,349.11105 39.1673394,369.585739 C31.4966915,374.764162 15.0482918,384.722669 14.0993457,384.722669 C13.7039515,384.722669 13.5457938,383.527648 13.7830303,382.173291 Z" id="路径" transform="translate(53.823475, 321.784910) scale(-1, 1) rotate(-180.000000) translate(-53.823475, -321.784910) "></path>
                    <path d="M841.580377,439.537826 C833.435256,401.217494 832.802625,372.218324 839.603406,351.584299 C846.246029,331.109611 858.50325,316.928698 879.69638,305.217494 C882.701376,303.544465 885.231899,302.269777 885.390057,302.349445 C885.469136,302.508781 886.971634,305.456499 888.711369,308.961893 C895.353992,322.346125 898.042672,335.332017 897.330963,349.433262 C895.828465,376.440731 881.1198,403.4482 850.437208,435.156084 L842.371166,443.521229 L841.580377,439.537826 Z" id="路径" transform="translate(866.193257, 372.933568) scale(-1, 1) rotate(-180.000000) translate(-866.193257, -372.933568) "></path>
                    <path d="M160.31613,434.574908 C146.081938,419.198975 138.490369,409.718477 131.294194,398.086942 C112.39435,367.733415 109.705669,339.052917 122.990915,310.850427 C126.865778,302.56495 126.549463,302.883622 130.582484,304.875323 C137.541423,308.460386 147.109963,315.23217 152.882718,320.729265 C165.77257,333.077813 173.601376,349.011423 176.369135,368.291091 C177.634397,377.213913 177.39716,398.325946 175.894662,410.037149 C174.629401,419.836319 170.438222,443.418062 169.805591,444.055406 C169.568355,444.214743 165.377176,439.992336 160.31613,434.574908 Z" id="路径" transform="translate(145.953981, 373.877834) scale(-1, 1) rotate(-180.000000) translate(-145.953981, -373.877834) "></path>
                    <path d="M997.602938,461.711463 C958.063515,455.338019 934.260783,445.618517 917.654226,429.047563 C908.955553,420.443414 902.31293,409.13055 898.358988,396.224326 C896.698332,390.886567 894.167809,376.86499 894.721361,376.307314 C895.512149,375.510633 905.950557,374.474949 913.383968,374.474949 C946.359846,374.474949 973.246654,393.674949 997.128465,434.305654 C1001.71504,442.113123 1012.23252,462.26914 1012.23252,463.225156 C1012.23252,463.942169 1009.54384,463.703165 997.602938,461.711463 Z" id="路径" transform="translate(953.438114, 419.034493) scale(-1, 1) rotate(-180.000000) translate(-953.438114, -419.034493) "></path>
                    <path d="M0.0233113024,463.521317 C0.0233113024,463.282313 2.94922856,457.227541 6.58685541,450.216753 C18.6859187,426.63501 27.3055127,414.127126 40.2744433,401.061566 C53.0061373,388.314678 64.6307274,381.064885 79.1812351,377.081483 C84.9539908,375.488122 87.6426715,375.249118 99.6626559,375.249118 C107.254225,375.249118 114.4504,375.488122 115.715661,375.886462 C117.771711,376.444138 117.85079,376.683143 117.376317,379.869865 C112.710665,412.454097 97.7647636,433.008454 68.5846697,446.950363 C54.1923199,453.801815 37.9020779,458.263226 13.3876361,462.087292 C-1.16287137,464.397665 0.0233113024,464.238329 0.0233113024,463.521317 Z" id="路径" transform="translate(58.807803, 419.620748) scale(-1, 1) rotate(-180.000000) translate(-58.807803, -419.620748) "></path>
                    <path d="M817.856724,532.956333 C809.711603,505.869196 806.943843,488.899901 807.655553,470.496582 C808.52542,447.950524 815.168043,432.016914 830.034866,416.959653 C836.677489,410.187868 848.064842,401.504051 849.251025,402.300731 C850.753523,403.17708 858.028777,415.684964 860.401142,421.580399 C867.913633,439.665047 868.467184,457.351354 862.378113,478.782059 C859.689433,488.103221 850.27905,507.462557 843.003796,518.616084 C836.993804,527.698242 823.155006,546.818574 822.443297,546.898242 C822.20606,546.898242 820.15001,540.604466 817.856724,532.956333 Z" id="路径" transform="translate(837.041351, 474.573941) scale(-1, 1) rotate(-180.000000) translate(-837.041351, -474.573941) "></path>
                    <path d="M181.272024,537.924329 C146.951805,491.876197 137.936817,456.344246 152.171009,423.202338 C155.017847,416.669558 158.813632,409.818105 161.818628,406.073707 L163.558362,403.843002 L167.749541,406.790719 C185.858597,419.378271 197.008714,434.674537 202.227917,454.033873 C204.283967,461.443002 204.442125,463.116031 204.442125,477.535948 C204.442125,493.867898 203.730415,499.524329 199.697394,516.174952 C196.929635,527.487815 190.44517,548.440512 189.73346,548.440512 C189.417145,548.440512 185.542281,543.660429 181.272024,537.924329 Z" id="路径" transform="translate(175.067421, 476.141757) scale(-1, 1) rotate(-180.000000) translate(-175.067421, -476.141757) "></path>
                    <path d="M775.62862,605.084494 C756.807855,570.030552 749.532601,547.803167 749.61168,525.336777 C749.690759,502.31271 758.310353,483.192378 776.34033,466.223084 L778.712695,464.072046 L783.694662,469.170801 C802.199113,488.211465 809.632524,512.589889 805.362266,541.190718 C802.910822,557.921009 796.821751,575.766652 785.829791,598.31271 L779.266247,611.776611 L775.62862,605.084494 Z" id="路径" transform="translate(778.072865, 537.924328) scale(-1, 1) rotate(-180.000000) translate(-778.072865, -537.924328) "></path>
                    <path d="M226.426044,600.171241 C218.518159,583.759622 214.168823,572.924768 210.768433,560.735556 C201.990681,530.222693 204.837519,503.852568 219.15079,482.501531 C223.500127,476.128087 232.356957,466.089913 233.701298,466.089913 C235.441032,466.089913 247.22378,480.031821 251.573116,487.122278 C264.937441,509.030992 266.281782,533.807755 255.764295,565.037631 C252.759299,574.199456 237.101688,607.739705 233.780376,612.280784 C232.989588,613.396137 231.961563,611.723108 226.426044,600.171241 Z" id="路径" transform="translate(234.266759, 539.331602) scale(-1, 1) rotate(-180.000000) translate(-234.266759, -539.331602) "></path>
                    <path d="M966.050479,542.100686 C932.44197,539.312304 908.48108,530.867491 893.060705,516.367906 C881.1198,505.134711 874.635334,494.14052 869.495209,476.613549 L867.676396,470.399441 L869.732446,469.60276 C876.058754,467.212719 884.203875,466.097366 895.986622,466.097366 C906.345951,466.177034 909.271868,466.416038 914.965545,468.009399 C941.061564,475.33886 963.599035,495.016868 988.350713,532.381184 C991.909261,537.718943 994.835178,542.260022 994.835178,542.499026 C994.835178,543.13637 975.381782,542.897366 966.050479,542.100686 Z" id="路径" transform="translate(931.255787, 504.480557) scale(-1, 1) rotate(-180.000000) translate(-931.255787, -504.480557) "></path>
                    <path d="M17.4206572,543.237692 C17.4206572,541.963003 32.4456376,520.054289 39.0091818,511.84848 C47.2333816,501.571302 60.9140217,488.027733 68.8219062,482.45097 C76.7297906,476.874206 87.0100408,471.695783 95.4714771,469.066737 C101.876864,467.154704 103.616598,466.9157 116.269213,466.9157 C128.210119,466.836032 131.056957,467.075036 137.383265,468.668397 L144.57944,470.500762 L143.076942,476.236862 C132.24314,515.672547 105.119096,535.908231 55.2203449,541.644331 C43.0422028,543.078356 17.4206572,544.193708 17.4206572,543.237692 Z" id="路径" transform="translate(81.000049, 505.248230) scale(-1, 1) rotate(-180.000000) translate(-81.000049, -505.248230) "></path>
                    <path d="M716.714881,648.358488 C696.549775,628.28214 685.162422,613.14521 678.519799,597.609941 C670.374678,578.489609 669.425732,560.962638 675.514803,541.603302 C677.412695,535.54853 682.394662,524.076331 683.739003,522.562638 C683.89716,522.403302 686.585841,523.598322 689.748995,525.271351 C713.156333,537.221559 727.864998,557.377576 733.400517,585.102057 C736.563671,600.876331 736.405513,625.732762 733.084202,648.995833 C732.214334,654.970937 731.502625,660.388364 731.502625,660.94604 C731.502625,661.424049 731.186309,661.902057 730.869994,661.902057 C730.553679,661.902057 724.148292,655.847285 716.714881,648.358488 Z" id="路径" transform="translate(703.626873, 592.225226) scale(-1, 1) rotate(-180.000000) translate(-703.626873, -592.225226) "></path>
                    <path d="M280.120579,656.629725 C276.720189,634.003998 275.692164,608.589891 277.510978,594.169974 C279.487949,579.033044 284.469916,564.453791 291.349775,553.618936 C296.015427,546.369144 306.137519,536.171633 313.570931,531.311882 C319.264608,527.567484 326.856177,523.424745 328.042359,523.424745 C329.861173,523.424745 337.136426,541.589061 339.350634,551.706903 C341.090369,559.59404 340.694974,575.92599 338.559846,583.972463 C334.764061,598.312712 328.437753,610.740928 317.841188,624.603169 C312.068433,632.171633 291.507933,653.921011 284.628074,659.736779 L280.990447,662.764164 L280.120579,656.629725 Z" id="路径" transform="translate(308.532762, 593.094454) scale(-1, 1) rotate(-180.000000) translate(-308.532762, -593.094454) "></path>
                    <path d="M868.7835,616.189687 C843.873664,612.126616 825.369214,600.335745 812.479362,580.339064 C808.130026,573.56728 804.255163,566.23782 804.255163,564.803795 C804.255163,563.36977 817.224093,557.63367 825.211056,555.641969 C853.125889,548.471845 880.329011,556.518318 910.616209,580.737405 C914.095678,583.525786 922.794351,591.651928 929.911447,598.742384 L942.959456,611.56894 L937.423937,612.524957 C918.04962,615.950683 910.695287,616.747363 893.614257,616.986367 C880.566248,617.225371 873.923625,617.066035 868.7835,616.189687 Z" id="路径" transform="translate(873.607310, 585.103481) scale(-1, 1) rotate(-180.000000) translate(-873.607310, -585.103481) "></path>
                    <path d="M102.82581,617.260166 C95.6296348,616.463486 70.1662465,612.559751 69.7708523,612.161411 C69.2963793,611.683403 90.6476676,590.651038 97.2902906,584.994606 C113.580533,571.132365 132.164061,560.536515 147.109963,556.393776 C160.711524,552.649378 176.527293,552.888382 189.73346,556.951453 C198.432133,559.580498 208.000673,564.041909 208.000673,565.396266 C208.000673,567.387967 201.041735,579.577179 196.059768,586.189627 C182.695443,604.114938 164.111914,614.23278 139.202078,617.339834 C131.373273,618.295851 112.473429,618.216183 102.82581,617.260166 Z" id="路径" transform="translate(138.881871, 585.877725) scale(-1, 1) rotate(-180.000000) translate(-138.881871, -585.877725) "></path>
                    <path d="M660.727059,691.244326 C659.461797,690.925654 652.661017,689.332293 645.702078,687.738932 C592.640173,675.629388 564.329947,654.278351 555.156801,619.304077 C553.417067,612.611961 551.361017,596.997023 552.151805,596.200343 C553.17983,595.164658 573.977566,595.802002 580.382953,596.997023 C609.088573,602.573787 631.705123,623.446816 651.07944,662.404492 C655.270618,670.849305 663.652976,690.606982 663.336661,691.403662 C663.178503,691.642666 662.071399,691.642666 660.727059,691.244326 Z" id="路径" transform="translate(607.661392, 643.623332) scale(-1, 1) rotate(-180.000000) translate(-607.661392, -643.623332) "></path>
                    <path d="M348.761017,692.376456 C348.761017,691.261104 355.482718,675.646166 360.14837,665.926664 C369.242437,646.965668 377.862031,633.740772 388.22136,623.065253 C401.269369,609.442017 414.396458,601.873552 431.31933,598.049485 C437.171165,596.774797 458.838768,596.137452 459.945872,597.252805 C460.894818,598.129154 458.996926,613.186415 457.099034,620.515875 C456.150088,624.02127 453.856801,630.235378 451.87983,634.378116 C439.069057,661.783925 413.289354,677.956539 364.339549,689.349071 C350.817067,692.456124 348.761017,692.934133 348.761017,692.376456 Z" id="路径" transform="translate(404.479648, 644.627571) scale(-1, 1) rotate(-180.000000) translate(-404.479648, -644.627571) "></path>
                    <path d="M784.880845,679.731864 C766.771789,677.899499 750.797863,670.331035 737.670775,657.185806 C732.135255,651.688711 725.176317,643.084562 725.176317,641.730205 C725.176317,640.535184 736.247355,633.126055 743.127215,629.620661 C753.486544,624.442238 761.868901,622.291201 774.205201,621.89286 C794.13307,621.175848 812.321205,626.194935 835.491306,639.021491 C843.241033,643.243898 869.890604,660.691201 869.890604,661.487881 C869.890604,662.204893 841.975771,671.844727 831.853679,674.553441 C815.088964,679.09452 797.849776,681.006553 784.880845,679.731864 Z" id="路径" transform="translate(797.533460, 650.972495) scale(-1, 1) rotate(-180.000000) translate(-797.533460, -650.972495) "></path>
                    <path d="M204.837519,681.056435 C203.730415,680.897099 200.409104,680.339423 197.325029,679.861415 C185.62136,678.02905 164.349151,671.735274 144.421282,664.007473 L142.127995,663.131124 L147.189042,659.466394 C157.390213,651.897929 173.126903,642.258095 183.881625,636.920336 C204.283967,626.802494 217.80645,623.217431 234.88748,623.217431 C247.302859,623.297099 256.555084,625.209133 266.914412,630.068884 C272.924405,632.857265 285.735177,640.983406 286.763202,642.576767 C287.474912,643.851456 283.52097,649.268884 276.245716,656.917016 C265.253757,668.389216 253.708245,675.400004 239.632211,679.144402 C234.25485,680.578427 230.300907,680.976767 219.8625,681.136104 C212.666325,681.29544 205.944623,681.29544 204.837519,681.056435 Z" id="路径" transform="translate(214.486614, 652.232291) scale(-1, 1) rotate(-180.000000) translate(-214.486614, -652.232291) "></path>
                    <path d="M676.859143,729.424762 C670.058362,728.150073 661.201532,725.043019 654.717067,721.776629 C649.972336,719.386588 640.482874,713.092812 637.636036,710.463766 L635.896302,708.870405 L639.296692,704.408994 C647.837207,693.255467 660.885216,682.978289 672.588885,678.118538 C690.856099,670.470405 714.263437,669.753393 742.178269,676.047169 C752.37944,678.357542 780.531508,687.280364 780.531508,688.23638 C780.531508,688.873725 760.445482,703.37331 753.644701,707.675384 C738.224326,717.554223 723.199346,724.405675 710.072258,727.751733 C699.63385,730.460447 685.636895,731.097791 676.859143,729.424762 Z" id="路径" transform="translate(708.213905, 701.073716) scale(-1, 1) rotate(-180.000000) translate(-708.213905, -701.073716) "></path>
                    <path d="M313.017379,730.552202 C292.140564,727.923156 267.942437,716.132285 239.315896,694.70158 L231.408011,688.806144 L233.780376,687.770459 C238.525107,685.69909 255.685216,680.281663 264.700205,677.971289 C279.40887,674.226891 287.316754,673.03187 300.602,672.63353 C323.613944,671.836849 340.378659,676.457596 355.799034,687.929795 C361.413632,692.152202 370.191383,700.915687 373.987168,706.253447 L376.517691,709.758841 L371.535724,713.503239 C353.189432,727.126476 332.708011,733.10158 313.017379,730.552202 Z" id="路径" transform="translate(303.962851, 701.836606) scale(-1, 1) rotate(-180.000000) translate(-303.962851, -701.836606) "></path>
                    <path d="M501.620423,729.743588 C489.52136,726.875538 483.036895,713.491306 488.256099,702.258111 C495.373195,686.802509 516.961719,687.041513 523.7625,702.656451 C528.428152,713.252301 522.655396,725.999189 511.584358,729.265579 C507.076864,730.619936 505.574366,730.699604 501.620423,729.743588 Z" id="路径" transform="translate(505.912793, 710.594124) scale(-1, 1) rotate(-180.000000) translate(-505.912793, -710.594124) "></path>
                    <path d="M580.066637,766.367348 C567.493101,764.773987 554.286934,759.834567 542.662344,752.425439 L538.471165,749.716725 L542.583265,743.343281 C550.491149,731.313406 564.329947,719.124194 576.033616,713.945771 C599.994506,703.270252 629.886309,703.190584 671.639939,713.786435 L681.762031,716.335812 L672.035334,724.780626 C652.898253,741.35158 641.669057,749.238717 626.723156,756.647845 C610.195677,764.773987 594.063593,768.120045 580.066637,766.367348 Z" id="路径" transform="translate(610.116598, 736.354967) scale(-1, 1) rotate(-180.000000) translate(-610.116598, -736.354967) "></path>
                    <path d="M415.58264,766.898299 C390.672804,763.472573 365.762968,748.972988 331.521828,717.902449 C330.651961,717.185436 332.78709,716.388756 342.197472,714.15805 C366.711914,708.182947 376.675849,706.82859 395.022141,706.908258 C414.791852,706.908258 427.049073,709.616972 440.492476,716.866764 C451.563515,722.841868 461.922843,732.56137 469.67257,744.192905 L473.78467,750.247677 L468.802703,753.514067 C452.354303,764.189586 432.426434,769.208673 415.58264,766.898299 Z" id="路径" transform="translate(402.564464, 737.178120) scale(-1, 1) rotate(-180.000000) translate(-402.564464, -737.178120) "></path>
                </g>
            </g>
            <g id="编组-3" transform="translate(209.000000, 255.304348)">
                <polygon id="路径" fill="#000000" fill-rule="nonzero" points="30.4630289 24.6417115 -3.41060513e-13 24.6417115 -3.41060513e-13 9.69565217 78 9.69565217 78 24.6417115 47.5395679 24.6417115 47.5395679 104.695652 30.4630289 104.695652"></polygon>
                <path d="M129,31.6956522 L129,47.7877327 C127.764978,47.5277636 126.507436,47.3897619 125.245469,47.3757132 C118.937856,47.3757132 114.015536,49.293288 110.47333,53.1284377 C106.933713,56.9661786 105.16261,62.4882758 105.16261,69.6973206 L105.16261,104.695652 L89,104.695652 L89,32.4937779 L104.396168,32.4937779 L104.396168,43.0559873 C109.051787,35.4841581 117.25479,31.6956522 129,31.6956522 Z" id="路径" fill="#000000" fill-rule="nonzero"></path>
                <path d="M196.629204,39.2379085 C202.218421,44.2858545 205.010418,51.8810958 205.000029,62.0236322 L205.000029,103.822077 L189.19868,103.822077 L189.19868,95.052955 C187.047105,98.2519397 183.986409,100.744834 180.404805,102.215441 C176.045401,103.961059 171.371625,104.801542 166.672047,104.684996 C161.835024,104.78865 157.034565,103.850582 152.599757,101.938167 C148.827647,100.326623 145.594245,97.6855548 143.27569,94.3221948 C141.103493,91.0762143 139.96594,87.2568523 140.01096,83.3607924 C139.80685,77.3819594 142.463199,71.6592394 147.175082,67.9267232 C151.954646,64.0293356 159.484418,62.0806419 169.764399,62.0806419 L188.26105,62.0806419 L188.26105,61.0155978 C188.26105,56.0298441 186.795839,52.2464759 183.760947,49.5281517 C180.728666,46.8072362 176.330423,45.5089708 170.438239,45.5089708 C166.405645,45.5089708 162.401781,46.1412598 158.565071,47.3773328 C154.971478,48.5006679 151.628166,50.2969095 148.716035,52.6688656 L142.150011,40.5102604 C146.213717,37.5099159 150.806503,35.2890554 155.692109,33.9619237 C161.140061,32.4205694 166.781719,31.657946 172.4467,31.6970855 C182.990471,31.6970855 191.050435,34.2106932 196.631816,39.2379085 L196.629204,39.2379085 L196.629204,39.2379085 Z" id="路径" fill="#000000" fill-rule="nonzero"></path>
                <path d="M182.046699,89.8498342 C185.271378,88.039226 187.732796,85.1925667 189,81.8082581 L189,73.6956522 L171.5786,73.6956522 C161.862921,73.6956522 157.003765,76.7905175 157.003765,82.980248 C156.918444,85.7768017 158.287606,88.4295942 160.652736,90.0502394 C163.642545,91.9520176 167.190068,92.8703702 170.765672,92.6681911 C174.72193,92.7361078 178.622398,91.7616476 182.046699,89.8498342 Z" id="路径" fill="#FFFFFF" fill-rule="nonzero"></path>
                <path d="M297,2.69565217 L297,101.725668 L280.885401,101.725668 L280.885401,92.5416637 C278.153898,95.8922507 274.628212,98.5077874 270.628525,100.150747 C266.356997,101.884462 261.778128,102.748716 257.165399,102.691446 C250.69597,102.787902 244.309964,101.223862 238.618112,98.1489044 C233.170813,95.17507 228.687573,90.7069092 225.696741,85.2709935 C222.490296,79.401937 220.874146,72.7972697 221.008478,66.1116192 C220.867602,59.4442847 222.484485,52.857269 225.696741,47.0121179 C228.708468,41.6065742 233.187841,37.162121 238.618112,34.1914768 C244.311252,31.1215117 250.697291,29.5628411 257.165399,29.664554 C261.612637,29.6066287 266.028133,30.4202662 270.162303,32.0594758 C274.05877,33.6213813 277.52027,36.0943984 280.25509,39.2728761 L280.25509,2.7685411 L297,2.69565217 Z" id="路径" fill="#000000" fill-rule="nonzero"></path>
                <path d="M270.462519,85.9773717 C273.715389,84.1592355 276.382086,81.4816173 278.158763,78.2496069 C280.097447,74.6975319 281.074212,70.7170051 280.995604,66.6888708 C281.074212,62.6607365 280.097447,58.6802097 278.158763,55.1281346 C276.38358,51.8950467 273.716523,49.2170661 270.462519,47.4003699 C263.633088,43.7940796 255.411503,43.7940796 248.582072,47.4003699 C245.32673,49.1720822 242.644501,51.805132 240.841174,54.9993386 C238.905572,58.5516355 237.928989,62.5305343 238.004333,66.5574988 C237.926313,70.5855703 238.903042,74.5659536 240.841174,78.1182349 C242.604402,81.4082866 245.290302,84.1352135 248.582072,85.9773717 C255.407358,89.6017457 263.637233,89.6017457 270.462519,85.9773717 L270.462519,85.9773717 Z" id="路径" fill="#FFFFFF" fill-rule="nonzero"></path>
                <path d="M381.696154,73.4028988 L324.937039,73.4028988 C325.77599,78.4186853 328.577062,82.9034694 332.731553,85.8826597 C337.291609,89.0912502 342.787418,90.7271415 348.375454,90.5392482 C355.730988,90.7724663 362.851354,87.9608923 368.00676,82.7886326 L377.089473,93.0061776 C373.790512,96.9098376 369.54971,99.9227798 364.761441,101.764814 C352.433602,106.204743 338.828489,105.579754 326.967323,100.028634 C321.130513,97.1152115 316.264917,92.5940684 312.95392,87.0072893 C309.606405,81.2789909 307.895504,74.7546112 308.004939,68.1347606 C307.902078,61.5699313 309.563332,55.0962854 312.818045,49.3788409 C315.945574,43.8858213 320.565614,39.3741208 326.152074,36.3574958 C332.057405,33.1960946 338.69437,31.5920721 345.412337,31.7009073 C352.01272,31.5920721 358.529488,33.1753641 364.317235,36.3004869 C369.804673,39.3034455 374.316401,43.7939419 377.324641,49.246684 C380.525456,55.1684753 382.132773,61.8086098 381.99142,68.5260488 C381.962677,69.6221739 381.873836,71.27284 381.696154,73.4028988 L381.696154,73.4028988 Z" id="路径" fill="#000000" fill-rule="nonzero"></path>
                <path d="M331.823762,50.3084207 C328.053739,53.4707012 325.62206,57.8849494 325,62.6956522 L366,62.6956522 C365.439442,57.9540187 363.098957,53.5823773 359.429454,50.4229523 C355.587855,47.2315881 350.664521,45.5501781 345.620081,45.7067945 C340.598772,45.5434562 335.690281,47.1806351 331.823762,50.3084207 L331.823762,50.3084207 Z" id="路径" fill="#FFFFFF" fill-rule="nonzero"></path>
                <path d="M38.0595781,181.186582 C35.4517339,180.399992 33.0426999,179.041825 31,177.206529 L33.7171942,170.615058 C35.5628355,172.190823 37.6648159,173.420497 39.9308533,174.249019 C42.3148067,175.166686 44.8192394,175.638629 47.3441793,175.643873 C49.7430728,175.819897 52.1379162,175.249563 54.2140664,174.007804 C55.6111144,173.132087 56.4775404,171.490774 56.4801038,169.713122 C56.5139214,168.500071 56.0566571,167.326546 55.2163522,166.469825 C54.295844,165.580158 53.1985356,164.904061 51.9992968,164.487664 C50.6406997,164.007855 48.9309181,163.465121 46.693078,162.851595 C44.0786963,162.207593 41.5109081,161.379724 39.0080326,160.373894 C37.0452048,159.536872 35.3218951,158.204513 33.9991672,156.501339 C32.5112941,154.438322 31.7684784,151.911616 31.8971868,149.351402 C31.872816,146.921818 32.516807,144.534175 33.755645,142.461034 C35.1149727,140.295079 37.0635648,138.582695 39.3617805,137.534473 C42.2418998,136.238236 45.3677406,135.613127 48.5130854,135.704383 C51.0200816,135.707004 53.5193875,136.060962 55.9494819,136.753145 C58.1924488,137.356183 60.3251899,138.373483 62.2631133,139.757849 L59.8330189,146.34932 C58.0752636,145.196479 56.1707358,144.296587 54.1730522,143.674976 C52.3398476,143.086624 50.4317709,142.778285 48.5105221,142.759931 C46.128693,142.567508 43.7493712,143.162132 41.7226634,144.456304 C40.3230521,145.426409 39.4848233,147.135892 39.5104572,148.96336 C39.4796965,150.182546 39.9436702,151.354538 40.7742088,152.162085 C41.7201,153.040423 42.8121045,153.703766 43.9912642,154.112783 C45.3498613,154.592592 47.0596429,155.135326 49.297483,155.748852 C51.8608737,156.344025 54.3858136,157.143706 56.8466687,158.134786 C58.7845921,158.958065 60.5123174,160.284749 61.8811681,162.009963 C63.3694517,164.03183 64.1144979,166.52498 63.9857119,169.052402 C64.0175558,171.498643 63.3579683,173.902233 62.0862393,175.974233 C60.7136973,178.131819 58.7556031,179.833008 56.4519065,180.869331 C53.5524528,182.160175 50.4101989,182.78059 47.2493338,182.686312 C44.1272522,182.693966 41.0243173,182.18758 38.0595781,181.186582 L38.0595781,181.186582 Z" id="路径" fill-opacity="0.85" fill="#000000" fill-rule="nonzero"></path>
                <path d="M105.282237,177.879351 C101.760746,174.658145 100,170.051613 100,164.064934 L100,140.695652 L108.482651,140.695652 L108.482651,163.831888 C108.482651,171.998837 112.351113,176.079722 120.088037,176.079722 C127.824961,176.079722 131.675298,171.998837 131.636458,163.831888 L131.636458,140.695652 L140,140.695652 L140,164.064934 C140,170.051613 138.247022,174.655556 134.743656,177.876762 C131.24029,181.097968 126.359399,182.703392 120.103573,182.69568 C113.746763,182.69568 108.806318,181.0902 105.284827,177.879351 L105.282237,177.879351 L105.282237,177.879351 Z" id="路径" fill-opacity="0.85" fill="#000000" fill-rule="nonzero"></path>
                <polygon id="路径" fill-opacity="0.85" fill="#000000" fill-rule="nonzero" points="213.805873 182.695652 213.805873 154.84929 200.259205 177.892323 196.845665 177.892323 183.298998 155.222163 183.298998 182.695652 176 182.695652 176 140.695652 182.297483 140.695652 198.66255 168.531657 214.699895 140.695652 221 140.695652 221 182.695652"></polygon>
                <polygon id="路径" fill-opacity="0.85" fill="#000000" fill-rule="nonzero" points="296.829469 182.695652 296.761303 154.84929 283.232988 177.892323 279.822069 177.892323 266.293754 155.222163 266.293754 182.695652 259 182.695652 259 140.695652 265.29224 140.695652 281.649441 168.531657 297.710382 140.695652 304 140.695652 304 182.695652"></polygon>
                <polygon id="路径" fill-opacity="0.85" fill="#000000" fill-rule="nonzero" points="337 140.695652 346 140.695652 346 182.695652 337 182.695652"></polygon>
                <polygon id="路径" fill-opacity="0.85" fill="#000000" fill-rule="nonzero" points="390.605904 147.296022 375 147.296022 375 140.695652 415 140.695652 415 147.296022 399.347488 147.296022 399.347488 182.695652 390.605904 182.695652"></polygon>
                <path d="M480,174.206107 L480,180.695652 L450.519684,180.695652 L450.519684,175.563059 L466.438951,159.984008 C467.898949,158.648395 469.127496,157.078399 470.074324,155.33826 C470.684646,154.123026 471.009449,152.783599 471.023804,151.422781 C471.123291,149.732505 470.430417,148.092608 469.150645,146.989381 C467.525167,145.857607 465.564172,145.315093 463.590512,145.451157 C459.946796,145.247874 456.437041,146.858598 454.206658,149.757666 L449,145.562509 C450.622813,143.345622 452.804704,141.602624 455.321265,140.512784 C458.127005,139.277971 461.164537,138.663283 464.227799,138.71042 C467.949822,138.549871 471.610363,139.702466 474.574032,141.968141 C477.177812,144.077813 478.636369,147.297487 478.508697,150.653669 C478.524948,152.831105 478.061517,154.985235 477.151561,156.961942 C475.802087,159.502522 474.01684,161.784369 471.877819,163.702678 L461.178111,174.206107 L480,174.206107 L480,174.206107 Z" id="路径" fill-opacity="0.85" fill="#000000" fill-rule="nonzero"></path>
                <path d="M492.004724,180.20979 C489.40528,178.418482 487.369642,175.910801 486.139786,172.984834 C483.286738,165.734572 483.286738,157.656462 486.139786,150.4062 C487.368646,147.479625 489.404494,144.971685 492.004724,143.181245 C497.182749,139.867121 503.788365,139.867121 508.96639,143.181245 C511.581163,144.963705 513.628905,147.473135 514.862088,150.4062 C517.712637,157.656051 517.712637,165.732394 514.862088,172.982244 C513.629031,175.915388 511.581263,178.424851 508.96639,180.2072 C503.789461,183.525136 497.181653,183.525136 492.004724,180.2072 L492.004724,180.20979 Z" id="路径" fill-opacity="0.85" fill="#000000" fill-rule="nonzero"></path>
                <path d="M507.454928,173.029703 C509.151643,170.606536 510,166.997786 510,162.195652 C510,157.396118 509.151643,153.776968 507.454928,151.361602 C505.91514,149.079184 503.302798,147.702216 500.5,147.695652 C497.717495,147.695652 495.111064,149.068433 493.545072,151.361602 C491.848357,153.776968 491,157.396118 491,162.195652 C491,166.995186 491.848357,170.601336 493.545072,173.029703 C495.090196,175.306446 497.699154,176.68163 500.5,176.695652 C503.285173,176.695652 505.888936,175.322871 507.454928,173.029703 Z" id="路径" fill="#FFFFFF" fill-rule="nonzero"></path>
                <path d="M555,174.196402 L555,180.695652 L525.542905,180.695652 L525.542905,175.550628 L541.40799,159.949838 C542.864727,158.61195 544.089768,157.040385 545.033042,155.299379 C545.640189,154.080441 545.963944,152.739178 545.979942,151.376525 C546.085918,149.681619 545.387597,148.036132 544.096463,146.938391 C542.479292,145.803327 540.523011,145.259494 538.55439,145.397733 C534.915411,145.194101 531.411399,146.808924 529.193758,149.711577 L524,145.509074 C525.617736,143.292942 527.792958,141.547787 530.303204,140.452088 C533.111179,139.237103 536.147575,138.645315 539.204578,138.717228 C542.93267,138.522322 546.609871,139.652811 549.589513,141.909888 C552.174413,144.035188 553.612734,147.256857 553.472576,150.60749 C553.485755,152.787444 553.023422,154.943885 552.118019,156.925486 C550.773718,159.467913 548.992781,161.752236 546.857179,163.673313 L536.185851,174.193813 L555,174.193813 L555,174.196402 Z" id="路径" fill-opacity="0.85" fill="#000000" fill-rule="nonzero"></path>
                <path d="M573.005811,180.210121 C570.408977,178.415081 568.373288,175.908567 567.137963,172.985129 C564.287346,165.734328 564.287346,157.657183 567.137963,150.406381 C568.37107,147.481584 570.407225,144.974498 573.005811,143.181389 C578.183164,139.867073 584.788562,139.867073 589.965915,143.181389 C592.580843,144.963858 594.628706,147.473301 595.861961,150.406381 C598.71268,157.656268 598.71268,165.732653 595.861961,172.98254 C594.628832,175.915697 592.580943,178.425174 589.965915,180.207532 C584.789475,183.525026 578.182251,183.525026 573.005811,180.207532 L573.005811,180.210121 L573.005811,180.210121 Z" id="路径" fill-opacity="0.85" fill="#000000" fill-rule="nonzero"></path>
                <path d="M588.455286,173.029703 C590.151762,170.606536 591,166.997786 591,162.195652 C591,157.396118 590.151762,153.776968 588.455286,151.361602 C586.910379,149.084859 584.301786,147.709674 581.501334,147.695652 C578.716552,147.695652 576.113155,149.068433 574.547382,151.361602 C572.850906,153.776968 572,157.396118 572,162.195652 C572,166.995186 572.850906,170.601336 574.547382,173.029703 C576.086954,175.31212 578.698929,176.689088 581.501334,176.695652 C584.283448,176.695652 586.889513,175.322871 588.455286,173.029703 Z" id="路径" fill="#FFFFFF" fill-rule="nonzero"></path>
                <g filter="url(#filter-1)" id="编组">
                    <g transform="translate(386.000000, 0.695652)" fill="#000000" fill-rule="nonzero">
                        <path d="M195.134632,8.91231707 L195.134632,104.708634 L180.521711,104.708634 L127.799,39.8666341 L127.799,104.708634 L110.171789,104.708634 L110.171789,8.91231707 L124.797737,8.91231707 L177.520447,73.7699756 L177.520447,8.91231707 L195.134632,8.91231707 Z M75.4827105,9.79441463 C73.8989316,8.89671714 72.0223737,8.67130578 70.271622,9.16846086 C68.5208704,9.66561593 67.0415665,10.8439801 66.1636842,12.4407073 C64.3098825,15.7596109 65.4839536,19.9552865 68.7897895,21.8253902 C83.3297632,30.0200244 90.5437368,47.0747805 86.3440526,63.3205122 C82.1417632,79.5636341 67.5809474,90.9004146 50.9202895,90.9004146 C34.2596316,90.9004146 19.6988158,79.5636341 15.4965263,63.3205122 C11.2968421,47.0747805 18.5108158,30.0200244 33.0533947,21.8253902 C35.0499966,20.6923562 36.3541227,18.6396234 36.5332754,16.3479559 C36.712428,14.0562883 35.743191,11.8252203 33.947,10.3946585 C31.7744399,8.66744441 28.7741012,8.43013992 26.3578684,9.79441463 C6.38071053,21.0555122 -3.52971053,44.491122 2.24615789,66.8123659 C8.02202632,89.1336098 28.0278421,104.708634 50.9202895,104.708634 C73.8127368,104.708634 93.8185526,89.1336098 99.5944211,66.8123659 C105.370289,44.491122 95.4598684,21.0555122 75.4827105,9.79441463" id="形状"></path>
                        <path d="M50.9255,62.3783902 C54.0101316,62.3783902 56.5111842,59.1892683 56.5111842,55.2537561 L56.5111842,6.81146341 C56.3731053,3.00121951 53.9111316,0 50.9202895,0 C47.9320526,0 45.4700789,3.00121951 45.332,6.81146341 L45.332,55.2850732 C45.3502368,59.2101463 47.8512895,62.3783902 50.9255,62.3783902 Z" id="路径"></path>
                    </g>
                </g>
            </g>
        </g>
    </g>
</svg>