<?xml version="1.0" encoding="UTF-8"?>
<svg width="1013px" height="768px" viewBox="0 0 1013 768" version="1.1" xmlns="http://www.w3.org/2000/svg" xmlns:xlink="http://www.w3.org/1999/xlink">
    <title>未命名</title>
    <g id="页面-1" stroke="none" stroke-width="1" fill="none" fill-rule="evenodd">
        <g id="二娥突然好">
            <g id="编组-3" fill="#C29D4D" fill-rule="nonzero">
                <g id="编组">
                    <path d="M763.924951,113.924904 C763.924951,113.6859 764.952976,108.188805 766.297316,101.735693 C771.042047,77.5962736 775.075068,64.6900495 782.508479,49.393784 C794.686622,24.0593441 811.688574,9.24108684 835.570385,3.18631505 C842.76656,1.27428185 855.656412,-0.558083291 856.4472,0.158929157 C856.684437,0.397933306 856.842594,6.69170924 856.842594,14.180506 C856.842594,26.1307134 856.605358,28.7597591 854.944702,34.6551948 C848.539316,57.8385973 832.960783,76.7995931 806.785686,93.0518756 C799.035959,97.9116266 780.689666,107.392124 770.80481,111.614531 C764.241266,114.482581 763.924951,114.562249 763.924951,113.924904 Z" id="路径" transform="translate(810.383772, 57.124617) scale(-1, 1) rotate(-180.000000) translate(-810.383772, -57.124617) "></path>
                    <path d="M243.981547,114.043909 C242.241813,113.16756 235.59919,110.060506 229.272882,107.03312 C184.435177,85.6820836 161.739549,61.622333 156.20403,29.675445 C154.938768,22.7443247 154.622453,10.9534533 155.49232,4.58000925 L156.045872,0.835610914 L159.683499,1.31361921 C174.708479,3.30532045 183.328074,5.6156939 192.580298,10.2364409 C215.7504,21.9476442 231.566169,45.0513786 241.134709,81.3800089 C243.269838,89.3468139 248.330884,113.087892 248.330884,114.999925 C248.330884,115.876274 247.619174,115.716938 243.981547,114.043909 Z" id="路径" transform="translate(201.666194, 58.179968) scale(-1, 1) rotate(-180.000000) translate(-201.666194, -58.179968) "></path>
                    <path d="M889.343999,160.377442 C879.06375,139.504413 873.132836,123.969143 869.732446,108.593209 C867.201923,97.2803467 867.201923,78.1600145 869.732446,68.5201804 C873.370073,54.8969439 880.170853,43.1857406 891.162813,31.6338734 L897.805436,24.623085 L900.96859,27.6504709 C909.509105,35.85628 918.207778,50.5948692 921.687247,62.5450767 C925.166716,74.6546203 925.483031,92.2612596 922.478035,107.159185 C920.738301,115.763334 915.202782,132.25462 910.220814,143.408147 C906.108714,152.649641 896.223859,172.088645 895.591228,172.088645 C895.353992,172.088645 892.586232,166.830554 889.343999,160.377442 Z" id="路径" transform="translate(896.183289, 98.355865) scale(-1, 1) rotate(-180.000000) translate(-896.183289, -98.355865) "></path>
                    <path d="M111.366325,163.165822 C94.9179252,131.935946 87.7217504,108.513539 87.7217504,86.6844946 C87.7217504,75.7699715 88.5125388,69.8745358 91.1221407,61.5093906 C94.4434522,50.5948677 102.351337,37.4496395 110.180142,29.6421707 L114.4504,25.419764 L120.539471,31.7135399 C128.13104,39.4413408 132.796692,46.0537889 137.304186,55.3749507 C141.81168,64.6961126 143.86773,73.1409258 144.500361,84.5334573 C145.528386,104.928477 139.281157,127.394867 123.860782,159.182419 C120.144077,166.671216 116.980923,172.885324 116.822765,172.885324 C116.664608,172.885324 114.213163,168.503581 111.366325,163.165822 Z" id="路径" transform="translate(116.165200, 99.152544) scale(-1, 1) rotate(-180.000000) translate(-116.165200, -99.152544) "></path>
                    <path d="M781.322297,209.232672 C781.322297,207.400307 791.839784,176.807776 795.002938,169.318979 C809.316209,135.77873 827.899737,116.738067 853.284046,109.408606 C865.224952,105.903212 884.52019,104.389519 885.390057,106.859228 C885.627294,107.496573 885.469136,112.276656 884.994663,117.455079 C881.277957,158.324789 856.051806,183.977901 800.30122,203.655909 C786.225185,208.674996 781.322297,210.109021 781.322297,209.232672 Z" id="路径" transform="translate(833.410674, 157.558586) scale(-1, 1) rotate(-180.000000) translate(-833.410674, -157.558586) "></path>
                    <path d="M217.09474,206.184172 C185.700439,195.508653 167.11691,185.390811 151.933772,170.652221 C136.038924,155.276288 128.526434,138.227325 126.944857,114.565914 L126.391305,106.280437 L137.383265,106.758446 C178.267027,108.590811 204.363046,132.092885 222.472102,183.399109 C226.03065,193.437284 231.170775,210.167574 230.77538,210.486246 C230.617223,210.565914 224.528152,208.653881 217.09474,206.184172 Z" id="路径" transform="translate(178.594101, 158.384543) scale(-1, 1) rotate(-180.000000) translate(-178.594101, -158.384543) "></path>
                    <path d="M950.155631,275.851972 C925.087637,244.383093 912.830416,221.677699 909.430026,200.246993 C908.006607,191.483508 908.797395,175.390562 911.011603,167.742429 C913.22581,159.93496 917.970541,149.73745 923.031587,142.089317 C927.539081,135.158196 926.748293,135.237864 934.339862,140.894296 C964.864296,163.679358 974.116521,198.653632 963.20364,249.322512 C961.305748,258.006329 955.374835,279.437035 954.663125,280.233715 C954.34681,280.552387 952.29076,278.560686 950.155631,275.851972 Z" id="路径" transform="translate(938.163102, 208.514709) scale(-1, 1) rotate(-180.000000) translate(-938.163102, -208.514709) "></path>
                    <path d="M57.5136314,281.9246 C56.8019218,280.72958 50.6337719,258.024185 49.052195,250.854061 C40.2744433,210.382692 44.5447009,179.79016 62.1002044,157.642443 C64.9470428,154.05738 69.1382216,149.516302 71.4315081,147.604268 C76.7297906,143.063189 84.0841235,137.486426 84.7958331,137.486426 C85.6657004,137.486426 92.1501657,147.843272 95.6296348,154.774393 C100.927917,165.52958 102.983967,173.576053 103.379362,186.163604 C103.695677,194.449082 103.537519,198.512152 102.509494,203.690575 C98.9509463,221.297214 91.5966138,236.832484 76.9670272,257.625845 C69.2173004,268.540368 57.9881045,282.641613 57.5136314,281.9246 Z" id="路径" transform="translate(74.078845, 209.718653) scale(-1, 1) rotate(-180.000000) translate(-74.078845, -209.718653) "></path>
                    <path d="M837.784593,320.669558 C839.840643,271.195699 850.27905,241.877856 872.18389,224.191549 C881.910588,216.38408 897.330963,208.974952 907.611213,207.301923 L910.853445,206.744246 L912.672259,214.153375 C915.28186,224.908562 915.360939,243.391549 912.751337,253.031383 C908.006607,270.71769 896.698332,287.846321 879.380065,303.700263 C870.048761,312.224744 852.572337,325.210636 840.315116,332.699433 L837.231041,334.611466 L837.784593,320.669558 Z" id="路径" transform="translate(875.950245, 270.677856) scale(-1, 1) rotate(-180.000000) translate(-875.950245, -270.677856) "></path>
                    <path d="M161.739549,326.724329 C145.92378,316.048811 139.439315,310.870388 128.684592,300.354205 C106.305279,278.445491 96.4995021,257.094454 97.5275271,232.158354 C98.0020002,220.447151 100.690681,207.859599 102.746731,207.859599 C108.440408,207.859599 126.312227,215.268728 135.327215,221.482836 C154.780611,234.628064 167.433226,258.926819 171.94072,291.351715 C173.443218,301.947566 175.024795,325.290305 174.629401,331.106072 L174.392164,335.328479 L161.739549,326.724329 Z" id="路径" transform="translate(136.072747, 271.594039) scale(-1, 1) rotate(-180.000000) translate(-136.072747, -271.594039) "></path>
                    <path d="M986.769136,376.676197 C961.305748,361.220595 944.857348,347.597358 934.49802,333.416446 C922.398956,316.845491 917.416989,300.832213 918.365935,281.871217 C918.76133,273.98408 920.501064,263.308562 922.082641,259.086155 L922.794351,257.25379 L928.171712,258.608147 C959.170619,266.734288 979.889277,288.643002 990.090447,324.334288 C993.016365,334.45213 996.021361,351.979101 997.128465,365.443002 C998.472805,380.978271 998.710042,383.766653 998.472805,383.766653 C998.393726,383.766653 993.095444,380.579931 986.769136,376.676197 Z" id="路径" transform="translate(958.403209, 320.510222) scale(-1, 1) rotate(-180.000000) translate(-958.403209, -320.510222) "></path>
                    <path d="M13.7830303,382.173294 C14.0202668,380.739269 14.4156611,376.118522 14.6528976,371.975784 C18.2905245,315.809809 36.1623433,280.915203 69.0591427,265.618937 C73.9620311,263.308564 87.405435,258.847153 89.3033273,258.847153 C90.0150369,258.847153 92.2292445,268.247983 93.4154272,276.374124 C94.6016099,284.181593 93.8108214,299.079518 91.9129291,306.249643 C85.5075427,329.751717 69.3754581,349.111053 39.1673394,369.585742 C31.4966915,374.764165 15.0482918,384.722672 14.0993457,384.722672 C13.7039515,384.722672 13.5457938,383.527651 13.7830303,382.173294 Z" id="路径" transform="translate(53.823475, 321.784913) scale(-1, 1) rotate(-180.000000) translate(-53.823475, -321.784913) "></path>
                    <path d="M841.580377,439.537829 C833.435256,401.217497 832.802625,372.218327 839.603406,351.584302 C846.246029,331.109614 858.50325,316.928701 879.69638,305.217497 C882.701376,303.544468 885.231899,302.26978 885.390057,302.349448 C885.469136,302.508784 886.971634,305.456502 888.711369,308.961896 C895.353992,322.346128 898.042672,335.33202 897.330963,349.433265 C895.828465,376.440734 881.1198,403.448203 850.437208,435.156087 L842.371166,443.521232 L841.580377,439.537829 Z" id="路径" transform="translate(866.193257, 372.933571) scale(-1, 1) rotate(-180.000000) translate(-866.193257, -372.933571) "></path>
                    <path d="M160.31613,434.574904 C146.081938,419.198971 138.490369,409.718473 131.294194,398.086938 C112.39435,367.733411 109.705669,339.052913 122.990915,310.850423 C126.865778,302.564946 126.549463,302.883618 130.582484,304.875319 C137.541423,308.460382 147.109963,315.232166 152.882718,320.729261 C165.77257,333.077809 173.601376,349.011419 176.369135,368.291087 C177.634397,377.213909 177.39716,398.325942 175.894662,410.037145 C174.629401,419.836315 170.438222,443.418058 169.805591,444.055402 C169.568355,444.214739 165.377176,439.992332 160.31613,434.574904 Z" id="路径" transform="translate(145.953981, 373.877830) scale(-1, 1) rotate(-180.000000) translate(-145.953981, -373.877830) "></path>
                    <path d="M997.602938,461.711459 C958.063515,455.338015 934.260783,445.618513 917.654226,429.047559 C908.955553,420.44341 902.31293,409.130546 898.358988,396.224322 C896.698332,390.886563 894.167809,376.864986 894.721361,376.30731 C895.512149,375.510629 905.950557,374.474945 913.383968,374.474945 C946.359846,374.474945 973.246654,393.674945 997.128465,434.30565 C1001.71504,442.113119 1012.23252,462.269136 1012.23252,463.225152 C1012.23252,463.942165 1009.54384,463.703161 997.602938,461.711459 Z" id="路径" transform="translate(953.438114, 419.034489) scale(-1, 1) rotate(-180.000000) translate(-953.438114, -419.034489) "></path>
                    <path d="M0.0233113023,463.521316 C0.0233113023,463.282312 2.94922856,457.22754 6.58685541,450.216752 C18.6859187,426.635009 27.3055127,414.127125 40.2744433,401.061565 C53.0061373,388.314677 64.6307274,381.064884 79.1812351,377.081482 C84.9539908,375.488121 87.6426715,375.249117 99.6626559,375.249117 C107.254225,375.249117 114.4504,375.488121 115.715661,375.886461 C117.771711,376.444137 117.85079,376.683142 117.376317,379.869864 C112.710665,412.454096 97.7647636,433.008453 68.5846697,446.950362 C54.1923199,453.801814 37.9020779,458.263225 13.3876361,462.087291 C-1.16287137,464.397664 0.0233113023,464.238328 0.0233113023,463.521316 Z" id="路径" transform="translate(58.807803, 419.620747) scale(-1, 1) rotate(-180.000000) translate(-58.807803, -419.620747) "></path>
                    <path d="M817.856724,532.956329 C809.711603,505.869192 806.943843,488.899897 807.655553,470.496578 C808.52542,447.95052 815.168043,432.01691 830.034866,416.959649 C836.677489,410.187864 848.064842,401.504047 849.251025,402.300727 C850.753523,403.177076 858.028777,415.68496 860.401142,421.580395 C867.913633,439.665043 868.467184,457.35135 862.378113,478.782055 C859.689433,488.103217 850.27905,507.462553 843.003796,518.61608 C836.993804,527.698238 823.155006,546.81857 822.443297,546.898238 C822.20606,546.898238 820.15001,540.604462 817.856724,532.956329 Z" id="路径" transform="translate(837.041351, 474.573937) scale(-1, 1) rotate(-180.000000) translate(-837.041351, -474.573937) "></path>
                    <path d="M181.272024,537.924329 C146.951805,491.876197 137.936817,456.344246 152.171009,423.202338 C155.017847,416.669558 158.813632,409.818105 161.818628,406.073707 L163.558362,403.843002 L167.749541,406.790719 C185.858597,419.378271 197.008714,434.674537 202.227917,454.033873 C204.283967,461.443002 204.442125,463.116031 204.442125,477.535948 C204.442125,493.867898 203.730415,499.524329 199.697394,516.174952 C196.929635,527.487815 190.44517,548.440512 189.73346,548.440512 C189.417145,548.440512 185.542281,543.660429 181.272024,537.924329 Z" id="路径" transform="translate(175.067421, 476.141757) scale(-1, 1) rotate(-180.000000) translate(-175.067421, -476.141757) "></path>
                    <path d="M775.62862,605.084493 C756.807855,570.030551 749.532601,547.803166 749.61168,525.336776 C749.690759,502.312709 758.310353,483.192377 776.34033,466.223083 L778.712695,464.072045 L783.694662,469.1708 C802.199113,488.211464 809.632524,512.589888 805.362266,541.190717 C802.910822,557.921008 796.821751,575.766651 785.829791,598.312709 L779.266247,611.77661 L775.62862,605.084493 Z" id="路径" transform="translate(778.072865, 537.924327) scale(-1, 1) rotate(-180.000000) translate(-778.072865, -537.924327) "></path>
                    <path d="M226.426044,600.171237 C218.518159,583.759618 214.168823,572.924764 210.768433,560.735552 C201.990681,530.222689 204.837519,503.852564 219.15079,482.501527 C223.500127,476.128083 232.356957,466.089909 233.701298,466.089909 C235.441032,466.089909 247.22378,480.031817 251.573116,487.122274 C264.937441,509.030988 266.281782,533.807751 255.764295,565.037627 C252.759299,574.199452 237.101688,607.739701 233.780376,612.28078 C232.989588,613.396133 231.961563,611.723104 226.426044,600.171237 Z" id="路径" transform="translate(234.266759, 539.331598) scale(-1, 1) rotate(-180.000000) translate(-234.266759, -539.331598) "></path>
                    <path d="M966.050479,542.100682 C932.44197,539.3123 908.48108,530.867487 893.060705,516.367902 C881.1198,505.134707 874.635334,494.140516 869.495209,476.613545 L867.676396,470.399437 L869.732446,469.602756 C876.058754,467.212715 884.203875,466.097362 895.986622,466.097362 C906.345951,466.17703 909.271868,466.416034 914.965545,468.009395 C941.061564,475.338856 963.599035,495.016864 988.350713,532.38118 C991.909261,537.718939 994.835178,542.260018 994.835178,542.499022 C994.835178,543.136366 975.381782,542.897362 966.050479,542.100682 Z" id="路径" transform="translate(931.255787, 504.480553) scale(-1, 1) rotate(-180.000000) translate(-931.255787, -504.480553) "></path>
                    <path d="M17.4206572,543.237691 C17.4206572,541.963002 32.4456376,520.054288 39.0091818,511.848479 C47.2333816,501.571301 60.9140217,488.027732 68.8219062,482.450969 C76.7297906,476.874205 87.0100408,471.695782 95.4714771,469.066736 C101.876864,467.154703 103.616598,466.915699 116.269213,466.915699 C128.210119,466.836031 131.056957,467.075035 137.383265,468.668396 L144.57944,470.500761 L143.076942,476.236861 C132.24314,515.672546 105.119096,535.90823 55.2203449,541.64433 C43.0422028,543.078355 17.4206572,544.193707 17.4206572,543.237691 Z" id="路径" transform="translate(81.000049, 505.248229) scale(-1, 1) rotate(-180.000000) translate(-81.000049, -505.248229) "></path>
                    <path d="M716.714881,648.358487 C696.549775,628.282139 685.162422,613.145209 678.519799,597.60994 C670.374678,578.489608 669.425732,560.962637 675.514803,541.603301 C677.412695,535.548529 682.394662,524.07633 683.739003,522.562637 C683.89716,522.403301 686.585841,523.598321 689.748995,525.27135 C713.156333,537.221558 727.864998,557.377575 733.400517,585.102056 C736.563671,600.87633 736.405513,625.732761 733.084202,648.995832 C732.214334,654.970936 731.502625,660.388363 731.502625,660.946039 C731.502625,661.424048 731.186309,661.902056 730.869994,661.902056 C730.553679,661.902056 724.148292,655.847284 716.714881,648.358487 Z" id="路径" transform="translate(703.626873, 592.225225) scale(-1, 1) rotate(-180.000000) translate(-703.626873, -592.225225) "></path>
                    <path d="M280.120579,656.629724 C276.720189,634.003997 275.692164,608.58989 277.510978,594.169973 C279.487949,579.033043 284.469916,564.45379 291.349775,553.618935 C296.015427,546.369143 306.137519,536.171632 313.570931,531.311881 C319.264608,527.567483 326.856177,523.424744 328.042359,523.424744 C329.861173,523.424744 337.136426,541.58906 339.350634,551.706902 C341.090369,559.594039 340.694974,575.925989 338.559846,583.972462 C334.764061,598.312711 328.437753,610.740927 317.841188,624.603168 C312.068433,632.171632 291.507933,653.92101 284.628074,659.736778 L280.990447,662.764163 L280.120579,656.629724 Z" id="路径" transform="translate(308.532762, 593.094454) scale(-1, 1) rotate(-180.000000) translate(-308.532762, -593.094454) "></path>
                    <path d="M868.7835,616.189686 C843.873664,612.126615 825.369214,600.335744 812.479362,580.339063 C808.130026,573.567279 804.255163,566.237819 804.255163,564.803794 C804.255163,563.369769 817.224093,557.633669 825.211056,555.641968 C853.125889,548.471844 880.329011,556.518317 910.616209,580.737404 C914.095678,583.525785 922.794351,591.651927 929.911447,598.742383 L942.959456,611.568939 L937.423937,612.524956 C918.04962,615.950682 910.695287,616.747362 893.614257,616.986366 C880.566248,617.22537 873.923625,617.066034 868.7835,616.189686 Z" id="路径" transform="translate(873.607310, 585.103480) scale(-1, 1) rotate(-180.000000) translate(-873.607310, -585.103480) "></path>
                    <path d="M102.82581,617.260162 C95.6296348,616.463482 70.1662465,612.559747 69.7708523,612.161407 C69.2963793,611.683399 90.6476676,590.651034 97.2902906,584.994602 C113.580533,571.132361 132.164061,560.536511 147.109963,556.393772 C160.711524,552.649374 176.527293,552.888378 189.73346,556.951449 C198.432133,559.580494 208.000673,564.041905 208.000673,565.396262 C208.000673,567.387963 201.041735,579.577175 196.059768,586.189623 C182.695443,604.114934 164.111914,614.232776 139.202078,617.33983 C131.373273,618.295847 112.473429,618.216179 102.82581,617.260162 Z" id="路径" transform="translate(138.881871, 585.877721) scale(-1, 1) rotate(-180.000000) translate(-138.881871, -585.877721) "></path>
                    <path d="M660.727059,691.244329 C659.461797,690.925657 652.661017,689.332296 645.702078,687.738935 C592.640173,675.629391 564.329947,654.278354 555.156801,619.30408 C553.417067,612.611964 551.361017,596.997026 552.151805,596.200346 C553.17983,595.164661 573.977566,595.802005 580.382953,596.997026 C609.088573,602.57379 631.705123,623.446819 651.07944,662.404495 C655.270618,670.849308 663.652976,690.606985 663.336661,691.403665 C663.178503,691.642669 662.071399,691.642669 660.727059,691.244329 Z" id="路径" transform="translate(607.661392, 643.623335) scale(-1, 1) rotate(-180.000000) translate(-607.661392, -643.623335) "></path>
                    <path d="M348.761017,692.376459 C348.761017,691.261107 355.482718,675.646169 360.14837,665.926667 C369.242437,646.965671 377.862031,633.740775 388.22136,623.065256 C401.269369,609.44202 414.396458,601.873555 431.31933,598.049488 C437.171165,596.7748 458.838768,596.137455 459.945872,597.252808 C460.894818,598.129157 458.996926,613.186418 457.099034,620.515878 C456.150088,624.021273 453.856801,630.235381 451.87983,634.378119 C439.069057,661.783928 413.289354,677.956542 364.339549,689.349074 C350.817067,692.456127 348.761017,692.934136 348.761017,692.376459 Z" id="路径" transform="translate(404.479648, 644.627574) scale(-1, 1) rotate(-180.000000) translate(-404.479648, -644.627574) "></path>
                    <path d="M784.880845,679.73186 C766.771789,677.899495 750.797863,670.331031 737.670775,657.185802 C732.135255,651.688707 725.176317,643.084558 725.176317,641.730201 C725.176317,640.53518 736.247355,633.126051 743.127215,629.620657 C753.486544,624.442234 761.868901,622.291197 774.205201,621.892856 C794.13307,621.175844 812.321205,626.194931 835.491306,639.021487 C843.241033,643.243894 869.890604,660.691197 869.890604,661.487877 C869.890604,662.204889 841.975771,671.844723 831.853679,674.553437 C815.088964,679.094516 797.849776,681.006549 784.880845,679.73186 Z" id="路径" transform="translate(797.533461, 650.972491) scale(-1, 1) rotate(-180.000000) translate(-797.533461, -650.972491) "></path>
                    <path d="M204.837519,681.056434 C203.730415,680.897098 200.409104,680.339422 197.325029,679.861414 C185.62136,678.029049 164.349151,671.735273 144.421282,664.007472 L142.127995,663.131123 L147.189042,659.466393 C157.390213,651.897928 173.126903,642.258094 183.881625,636.920335 C204.283967,626.802493 217.80645,623.21743 234.88748,623.21743 C247.302859,623.297098 256.555084,625.209132 266.914412,630.068883 C272.924405,632.857264 285.735177,640.983405 286.763202,642.576766 C287.474912,643.851455 283.52097,649.268883 276.245716,656.917015 C265.253757,668.389215 253.708245,675.400003 239.632211,679.144401 C234.25485,680.578426 230.300907,680.976766 219.8625,681.136103 C212.666325,681.295439 205.944623,681.295439 204.837519,681.056434 Z" id="路径" transform="translate(214.486614, 652.232290) scale(-1, 1) rotate(-180.000000) translate(-214.486614, -652.232290) "></path>
                    <path d="M676.859143,729.424765 C670.058362,728.150076 661.201532,725.043022 654.717067,721.776632 C649.972336,719.386591 640.482874,713.092815 637.636036,710.463769 L635.896302,708.870408 L639.296692,704.408997 C647.837207,693.25547 660.885216,682.978292 672.588885,678.118541 C690.856099,670.470408 714.263437,669.753396 742.178269,676.047172 C752.37944,678.357545 780.531508,687.280367 780.531508,688.236383 C780.531508,688.873728 760.445482,703.373313 753.644701,707.675387 C738.224326,717.554226 723.199346,724.405678 710.072258,727.751736 C699.63385,730.46045 685.636895,731.097794 676.859143,729.424765 Z" id="路径" transform="translate(708.213905, 701.073719) scale(-1, 1) rotate(-180.000000) translate(-708.213905, -701.073719) "></path>
                    <path d="M313.017379,730.552201 C292.140564,727.923155 267.942437,716.132284 239.315896,694.701579 L231.408011,688.806143 L233.780376,687.770458 C238.525107,685.699089 255.685216,680.281662 264.700205,677.971288 C279.40887,674.22689 287.316754,673.031869 300.602,672.633529 C323.613944,671.836848 340.378659,676.457595 355.799034,687.929794 C361.413632,692.152201 370.191383,700.915686 373.987168,706.253446 L376.517691,709.75884 L371.535724,713.503238 C353.189432,727.126475 332.708011,733.101579 313.017379,730.552201 Z" id="路径" transform="translate(303.962851, 701.836605) scale(-1, 1) rotate(-180.000000) translate(-303.962851, -701.836605) "></path>
                    <path d="M501.620423,729.743584 C489.52136,726.875534 483.036895,713.491302 488.256099,702.258107 C495.373195,686.802505 516.961719,687.041509 523.7625,702.656447 C528.428152,713.252297 522.655396,725.999185 511.584358,729.265575 C507.076864,730.619932 505.574366,730.6996 501.620423,729.743584 Z" id="路径" transform="translate(505.912793, 710.594120) scale(-1, 1) rotate(-180.000000) translate(-505.912793, -710.594120) "></path>
                    <path d="M580.066637,766.367348 C567.493101,764.773987 554.286934,759.834567 542.662344,752.425439 L538.471165,749.716725 L542.583265,743.343281 C550.491149,731.313406 564.329947,719.124194 576.033616,713.945771 C599.994506,703.270252 629.886309,703.190584 671.639939,713.786435 L681.762031,716.335812 L672.035334,724.780626 C652.898253,741.35158 641.669057,749.238717 626.723156,756.647845 C610.195677,764.773987 594.063593,768.120045 580.066637,766.367348 Z" id="路径" transform="translate(610.116598, 736.354967) scale(-1, 1) rotate(-180.000000) translate(-610.116598, -736.354967) "></path>
                    <path d="M415.58264,766.898302 C390.672804,763.472576 365.762968,748.972991 331.521828,717.902452 C330.651961,717.185439 332.78709,716.388759 342.197472,714.158053 C366.711914,708.18295 376.675849,706.828593 395.022141,706.908261 C414.791852,706.908261 427.049073,709.616975 440.492476,716.866767 C451.563515,722.841871 461.922843,732.561373 469.67257,744.192908 L473.78467,750.24768 L468.802703,753.51407 C452.354303,764.189589 432.426434,769.208676 415.58264,766.898302 Z" id="路径" transform="translate(402.564464, 737.178123) scale(-1, 1) rotate(-180.000000) translate(-402.564464, -737.178123) "></path>
                </g>
            </g>
            <text id="J-F-E-X" fill="#006400" fill-rule="nonzero" font-family="Impact" font-size="143" font-style="condensed" font-weight="700">
                <tspan x="339" y="581.668317">J F E X</tspan>
            </text>
            <g id="2-0-2-0" transform="translate(346.000000, 310.331683)" fill="#006400" fill-rule="nonzero" font-family="Impact" font-size="114" font-style="condensed" font-weight="700">
                <text>
                    <tspan x="0" y="115.668317">2 0 2 0</tspan>
                </text>
            </g>
            <g id="JORDAN-FOREX-EXPO" transform="translate(210.000000, 212.331683)" fill="#006400" fill-rule="nonzero" font-family="Impact" font-size="74" font-style="condensed" font-weight="700">
                <text>
                    <tspan x="0" y="75.668317">JORDAN FOREX EXPO</tspan>
                </text>
            </g>
            <line x1="803.5" y1="450.5" x2="210.5" y2="450.5" id="直线-2" stroke="#006400" stroke-width="5" stroke-linecap="square"></line>
            <polyline id="直线" stroke="#006400" stroke-width="5" stroke-linecap="square" points="212.5 172.5 467.198279 172.500001 802.499833 171.331683"></polyline>
        </g>
    </g>
</svg>