<?xml version="1.0" encoding="UTF-8"?>
<svg width="1282px" height="965px" viewBox="0 0 1282 965" version="1.1" xmlns="http://www.w3.org/2000/svg" xmlns:xlink="http://www.w3.org/1999/xlink">
    <title>未命名</title>
    <g id="页面-1" stroke="none" stroke-width="1" fill="none" fill-rule="evenodd">
        <g id="Forex-EXPO-Dubai-2021" fill-rule="nonzero">
            <g id="编组-2" transform="translate(0.970521, 0.092899)">
                <g id="3-Forex-EXPO-Dubai-2020" transform="translate(365.738733, 86.907101)">
                    <polygon id="路径_3418" fill="#141D50" points="0.271956293 84.6153846 63.8773985 84.6153846 63.8773985 131.712758 26.9346687 131.712758 26.9346687 167.187321 59.5466256 167.187321 59.5466256 215.720268 26.9346687 215.720268 26.9346687 302.662722 0.271956293 302.662722"></polygon>
                    <path d="M230.1509,302.662722 L214.745539,244.809839 L198.543685,244.809839 L198.543685,302.662722 L172.3808,302.662722 L172.3808,84.6153846 L214.342436,84.6153846 C229.430002,84.5125047 242.996821,104.712092 248.497584,135.470051 C253.998347,166.228011 250.302865,201.224791 239.194022,223.576204 L260.30597,302.662722 L230.1509,302.662722 Z M198.543685,195.388739 L214.745539,195.388739 C222.630059,195.388739 229.021724,181.395391 229.021724,164.133722 C229.021724,146.872052 222.630059,132.878704 214.745539,132.878704 L198.543685,132.878704 L198.543685,195.388739 Z" id="路径_3419" fill="#141D50"></path>
                    <path d="M111.58148,255.226406 L105.669237,255.226406 C101.626054,255.226406 98.3484053,247.942094 98.3484053,238.956441 L98.3484053,148.321665 C98.3484053,139.336013 101.626054,132.051701 105.669237,132.051701 L111.58148,132.051701 L111.58148,84.6153846 C85.0223189,86.2654423 63.8773985,134.59038 63.8773985,193.639053 C63.8773985,252.687726 85.0223189,301.012664 111.58148,302.662722 L111.58148,255.226406 Z" id="路径_3420" fill="#2A6218"></path>
                    <path d="M114.387603,84.6153846 L114.387603,132.037353 L120.305958,132.037353 C122.251147,132.037353 124.116667,133.751756 125.492123,136.803413 C126.86758,139.85507 127.640302,143.994005 127.640302,148.309701 L127.640302,238.957756 C127.640302,247.944726 124.356604,255.230105 120.305958,255.230105 L114.387603,255.230105 L114.387603,302.662722 C140.959516,300.914551 162.091684,252.618759 162.091684,193.639053 C162.091684,134.659347 140.959516,86.363555 114.387603,84.6153846 L114.387603,84.6153846 Z" id="路径_3421" fill="#2A6218"></path>
                    <polygon id="路径_3422" fill="#141D50" points="267.788963 84.6153846 327.652909 84.6153846 327.652909 132.017442 293.095235 132.017442 293.095235 167.497196 323.673256 167.497196 323.673256 215.739452 293.095235 215.739452 293.095235 255.866883 327.652909 255.866883 327.652909 302.662722 267.788963 302.662722"></polygon>
                    <polygon id="路径_3423" fill="#2A6218" points="409.816978 175.739645 441.768555 77.0216963 410.312617 77.0216963 394.064473 127.309781"></polygon>
                    <polygon id="路径_3424" fill="#141D50" points="380.174074 263.715246 406.224337 182.352448 406.142945 182.097692 406.142945 182.097692 349.048774 0.286600855 349.048774 0.286600855 348.957806 0 318.268193 0 375.319274 182.108306 314.557671 373.175542 345.247283 373.175542 380.198013 263.768319"></polygon>
                    <polygon id="路径_3425" fill="#2A6218" points="359.770755 209.326173 368.809371 181.894302 368.7798 181.809341 368.7798 181.809341 348.972713 120.509782 348.972713 120.509782 348.943143 120.414201 338.297881 120.414201 358.085255 181.830581 337.00665 246.252465 347.651912 246.252465 359.770755 209.358033"></polygon>
                    <polygon id="路径_3426" fill="#2A6218" points="415.479272 216.229941 415.479272 216.229941 409.450094 197.435897 394.064473 244.83865 413.039914 303.747535 443.639303 303.747535"></polygon>
                    <polygon id="路径_3427" fill="#141D50" points="191.088283 331.952663 250.933143 331.952663 250.933143 379.346744 216.408913 379.346744 216.408913 414.816699 246.94444 414.816699 246.94444 463.085649 216.408913 463.085649 216.408913 503.199965 250.952228 503.199965 250.952228 550 191.088283 550"></polygon>
                    <polygon id="路径_3428" fill="#141D50" points="357.177799 331.952663 324.954772 436.32117 360.391004 550 329.456132 550 309.477759 486.048233 289.365304 550 258.435222 550 293.871452 436.32117 261.66758 331.952663 292.602452 331.952663 309.492126 386.313285 326.252505 331.952663"></polygon>
                    <path d="M368.809371,331.952663 L409.818802,331.952663 C429.439134,332.030179 445.366211,367.514671 445.509084,411.468291 C445.651957,455.42191 429.957243,491.422272 410.339495,492.139905 L394.376384,492.139905 L394.376384,550 L368.823835,550 L368.809371,331.952663 Z M394.361921,442.715266 L410.194859,442.715266 C415.240617,442.925418 419.943757,437.015167 422.494105,427.259286 C425.044453,417.503406 425.044453,405.422672 422.494105,395.666792 C419.943757,385.910911 415.240617,380.00066 410.194859,380.210811 L394.376384,380.210811 L394.361921,442.715266 Z" id="路径_3429" fill="#141D50"></path>
                    <path d="M501.03587,331.952662 C527.640215,331.793008 549.264926,380.473489 549.336582,440.684841 C549.407188,500.896192 527.897803,549.837681 501.29346,550.000001 C474.689116,550.159938 453.064302,501.47969 452.993045,441.268339 C452.993045,381.122652 474.460919,332.274753 501.03587,331.952662 Z M501.03587,388.938658 C491.736078,388.938658 483.352003,401.617324 479.793126,421.062615 C476.23425,440.507906 478.201432,462.890404 484.777378,477.773184 C491.353325,492.655965 501.243015,497.108122 509.834903,489.053618 C518.426791,480.999115 524.029031,462.02415 524.029031,440.976719 C524.042827,427.164703 521.625001,413.909125 517.310085,404.141516 C512.995169,394.373907 507.138703,388.899094 501.03587,388.927522 L501.03587,388.938658 Z" id="路径_3430" fill="#141D50"></path>
                </g>
                <g id="编组" fill="#C29D4D">
                    <path d="M966.029479,142.999489 C966.029479,142.699489 967.329479,135.799489 969.029479,127.699489 C975.029479,97.399489 980.129479,81.199489 989.529479,61.999489 C1004.92948,30.199489 1026.42948,11.599489 1056.62948,3.999489 C1065.72948,1.599489 1082.02948,-0.700511006 1083.02948,0.199488994 C1083.32948,0.499488994 1083.52948,8.399489 1083.52948,17.799489 C1083.52948,32.799489 1083.22948,36.099489 1081.12948,43.499489 C1073.02948,72.599489 1053.32948,96.399489 1020.22948,116.799489 C1010.42948,122.899489 987.229479,134.799489 974.729479,140.099489 C966.429479,143.699489 966.029479,143.799489 966.029479,142.999489 Z" id="路径" transform="translate(1024.779479, 71.703295) scale(-1, 1) rotate(-180.000000) translate(-1024.779479, -71.703295) "></path>
                    <path d="M308.529479,143.14887 C306.329479,142.048871 297.929479,138.14887 289.929479,134.34887 C233.229479,107.548871 204.529479,77.3488709 197.529479,37.2488709 C195.929479,28.5488709 195.529479,13.7488709 196.629479,5.74887087 L197.329479,1.04887087 L201.929479,1.64887087 C220.929479,4.14887087 231.829479,7.04887087 243.529479,12.8488709 C272.829479,27.5488709 292.829479,56.5488709 304.929479,102.14887 C307.629479,112.14887 314.029479,141.94887 314.029479,144.34887 C314.029479,145.44887 313.129479,145.24887 308.529479,143.14887 Z" id="路径" transform="translate(255.019145, 73.027986) scale(-1, 1) rotate(-180.000000) translate(-255.019145, -73.027986) "></path>
                    <path d="M1124.62948,201.307101 C1111.62948,175.107101 1104.12948,155.607101 1099.82948,136.307101 C1096.62948,122.107101 1096.62948,98.107101 1099.82948,86.007101 C1104.42948,68.907101 1113.02948,54.207101 1126.92948,39.707101 L1135.32948,30.907101 L1139.32948,34.707101 C1150.12948,45.007101 1161.12948,63.507101 1165.52948,78.507101 C1169.92948,93.707101 1170.32948,115.807101 1166.52948,134.507101 C1164.32948,145.307101 1157.32948,166.007101 1151.02948,180.007101 C1145.82948,191.607101 1133.32948,216.007101 1132.52948,216.007101 C1132.22948,216.007101 1128.72948,209.407101 1124.62948,201.307101 Z" id="路径" transform="translate(1133.278177, 123.457101) scale(-1, 1) rotate(-180.000000) translate(-1133.278177, -123.457101) "></path>
                    <path d="M140.829479,204.807101 C120.029479,165.607101 110.929479,136.207101 110.929479,108.807101 C110.929479,95.107101 111.929479,87.707101 115.229479,77.207101 C119.429479,63.507101 129.429479,47.007101 139.329479,37.207101 L144.729479,31.907101 L152.429479,39.807101 C162.029479,49.507101 167.929479,57.807101 173.629479,69.507101 C179.329479,81.207101 181.929479,91.807101 182.729479,106.107101 C184.029479,131.707101 176.129479,159.907101 156.629479,199.807101 C151.929479,209.207101 147.929479,217.007101 147.729479,217.007101 C147.529479,217.007101 144.429479,211.507101 140.829479,204.807101 Z" id="路径" transform="translate(146.897947, 124.457101) scale(-1, 1) rotate(-180.000000) translate(-146.897947, -124.457101) "></path>
                    <path d="M988.029479,262.630588 C988.029479,260.330588 1001.32948,221.930588 1005.32948,212.530588 C1023.42948,170.430588 1046.92948,146.530588 1079.02948,137.330588 C1094.12948,132.930588 1118.52948,131.030588 1119.62948,134.130588 C1119.92948,134.930588 1119.72948,140.930588 1119.12948,147.430588 C1114.42948,198.730588 1082.52948,230.930588 1012.02948,255.630588 C994.229479,261.930588 988.029479,263.730588 988.029479,262.630588 Z" id="路径" transform="translate(1053.898394, 197.768843) scale(-1, 1) rotate(-180.000000) translate(-1053.898394, -197.768843) "></path>
                    <path d="M274.529479,258.804086 C234.829479,245.404086 211.329479,232.704086 192.129479,214.204086 C172.029479,194.904086 162.529479,173.504086 160.529479,143.804086 L159.829479,133.404086 L173.729479,134.004086 C225.429479,136.304086 258.429479,165.804086 281.329479,230.204086 C285.829479,242.804086 292.329479,263.804086 291.829479,264.204086 C291.629479,264.304086 283.929479,261.904086 274.529479,258.804086 Z" id="路径" transform="translate(225.843084, 198.805594) scale(-1, 1) rotate(-180.000000) translate(-225.843084, -198.805594) "></path>
                    <path d="M1201.52948,346.25169 C1169.82948,306.75169 1154.32948,278.25169 1150.02948,251.35169 C1148.22948,240.35169 1149.22948,220.15169 1152.02948,210.55169 C1154.82948,200.75169 1160.82948,187.95169 1167.22948,178.35169 C1172.92948,169.65169 1171.92948,169.75169 1181.52948,176.85169 C1220.12948,205.45169 1231.82948,249.35169 1218.02948,312.95169 C1215.62948,323.85169 1208.12948,350.75169 1207.22948,351.75169 C1206.82948,352.15169 1204.22948,349.65169 1201.52948,346.25169 Z" id="路径" transform="translate(1186.364200, 261.729396) scale(-1, 1) rotate(-180.000000) translate(-1186.364200, -261.729396) "></path>
                    <path d="M72.7294786,353.874112 C71.8294786,352.374112 64.0294786,323.874112 62.0294786,314.874112 C50.9294786,264.074112 56.3294786,225.674112 78.5294786,197.874112 C82.1294786,193.374112 87.4294786,187.674112 90.3294786,185.274112 C97.0294786,179.574112 106.329479,172.574112 107.229479,172.574112 C108.329479,172.574112 116.529479,185.574112 120.929479,194.274112 C127.629479,207.774112 130.229479,217.874112 130.729479,233.674112 C131.129479,244.074112 130.929479,249.174112 129.629479,255.674112 C125.129479,277.774112 115.829479,297.274112 97.3294786,323.374112 C87.5294786,337.074112 73.3294786,354.774112 72.7294786,353.874112 Z" id="路径" transform="translate(93.677196, 263.240607) scale(-1, 1) rotate(-180.000000) translate(-93.677196, -263.240607) "></path>
                    <path d="M1059.42948,402.507101 C1062.02948,340.407101 1075.22948,303.607101 1102.92948,281.407101 C1115.22948,271.607101 1134.72948,262.307101 1147.72948,260.207101 L1151.82948,259.507101 L1154.12948,268.807101 C1157.42948,282.307101 1157.52948,305.507101 1154.22948,317.607101 C1148.22948,339.807101 1133.92948,361.307101 1112.02948,381.207101 C1100.22948,391.907101 1078.12948,408.207101 1062.62948,417.607101 L1058.72948,420.007101 L1059.42948,402.507101 Z" id="路径" transform="translate(1107.692264, 339.757101) scale(-1, 1) rotate(-180.000000) translate(-1107.692264, -339.757101) "></path>
                    <path d="M204.529479,410.107101 C184.529479,396.707101 176.329479,390.207101 162.729479,377.007101 C134.429479,349.507101 122.029479,322.707101 123.329479,291.407101 C123.929479,276.707101 127.329479,260.907101 129.929479,260.907101 C137.129479,260.907101 159.729479,270.207101 171.129479,278.007101 C195.729479,294.507101 211.729479,325.007101 217.429479,365.707101 C219.329479,379.007101 221.329479,408.307101 220.829479,415.607101 L220.529479,420.907101 L204.529479,410.107101 Z" id="路径" transform="translate(172.072250, 340.907101) scale(-1, 1) rotate(-180.000000) translate(-172.072250, -340.907101) "></path>
                    <path d="M1247.82948,472.807101 C1215.62948,453.407101 1194.82948,436.307101 1181.72948,418.507101 C1166.42948,397.707101 1160.12948,377.607101 1161.32948,353.807101 C1161.82948,343.907101 1164.02948,330.507101 1166.02948,325.207101 L1166.92948,322.907101 L1173.72948,324.607101 C1212.92948,334.807101 1239.12948,362.307101 1252.02948,407.107101 C1255.72948,419.807101 1259.52948,441.807101 1260.92948,458.707101 C1262.62948,478.207101 1262.92948,481.707101 1262.62948,481.707101 C1262.52948,481.707101 1255.82948,477.707101 1247.82948,472.807101 Z" id="路径" transform="translate(1211.959044, 402.307101) scale(-1, 1) rotate(-180.000000) translate(-1211.959044, -402.307101) "></path>
                    <path d="M17.4294786,479.707101 C17.7294786,477.907101 18.2294786,472.107101 18.5294786,466.907101 C23.1294786,396.407101 45.7294786,352.607101 87.3294786,333.407101 C93.5294786,330.507101 110.529479,324.907101 112.929479,324.907101 C113.829479,324.907101 116.629479,336.707101 118.129479,346.907101 C119.629479,356.707101 118.629479,375.407101 116.229479,384.407101 C108.129479,413.907101 87.7294786,438.207101 49.5294786,463.907101 C39.8294786,470.407101 19.0294786,482.907101 17.8294786,482.907101 C17.3294786,482.907101 17.1294786,481.407101 17.4294786,479.707101 Z" id="路径" transform="translate(68.063052, 403.907101) scale(-1, 1) rotate(-180.000000) translate(-68.063052, -403.907101) "></path>
                    <path d="M1064.22948,551.711543 C1053.92948,503.611543 1053.12948,467.211543 1061.72948,441.311543 C1070.12948,415.611543 1085.62948,397.811543 1112.42948,383.111543 C1116.22948,381.011543 1119.42948,379.411543 1119.62948,379.511543 C1119.72948,379.711543 1121.62948,383.411543 1123.82948,387.811543 C1132.22948,404.611543 1135.62948,420.911543 1134.72948,438.611543 C1132.82948,472.511543 1114.22948,506.411543 1075.42948,546.211543 L1065.22948,556.711543 L1064.22948,551.711543 Z" id="路径" transform="translate(1095.353960, 468.109321) scale(-1, 1) rotate(-180.000000) translate(-1095.353960, -468.109321) "></path>
                    <path d="M202.729479,545.482046 C184.729479,526.182046 175.129479,514.282046 166.029479,499.682046 C142.129479,461.582046 138.729479,425.582046 155.529479,390.182046 C160.429479,379.782046 160.029479,380.182046 165.129479,382.682046 C173.929479,387.182046 186.029479,395.682046 193.329479,402.582046 C209.629479,418.082046 219.529479,438.082046 223.029479,462.282046 C224.629479,473.482046 224.329479,499.982046 222.429479,514.682046 C220.829479,526.982046 215.529479,556.582046 214.729479,557.382046 C214.429479,557.582046 209.129479,552.282046 202.729479,545.482046 Z" id="路径" transform="translate(184.567670, 469.294574) scale(-1, 1) rotate(-180.000000) translate(-184.567670, -469.294574) "></path>
                    <path d="M1261.52948,579.544077 C1211.52948,571.544077 1181.42948,559.344077 1160.42948,538.544077 C1149.42948,527.744077 1141.02948,513.544077 1136.02948,497.344077 C1133.92948,490.644077 1130.72948,473.044077 1131.42948,472.344077 C1132.42948,471.344077 1145.62948,470.044077 1155.02948,470.044077 C1196.72948,470.044077 1230.72948,494.144077 1260.92948,545.144077 C1266.72948,554.944077 1280.02948,580.244077 1280.02948,581.444077 C1280.02948,582.344077 1276.62948,582.044077 1261.52948,579.544077 Z" id="路径" transform="translate(1205.680381, 525.975588) scale(-1, 1) rotate(-180.000000) translate(-1205.680381, -525.975588) "></path>
                    <path d="M0.0294785571,581.81582 C0.0294785571,581.51582 3.72947856,573.91582 8.32947856,565.11582 C23.6294786,535.51582 34.5294786,519.81582 50.9294786,503.41582 C67.0294786,487.41582 81.7294786,478.31582 100.129479,473.31582 C107.429479,471.31582 110.829479,471.01582 126.029479,471.01582 C135.629479,471.01582 144.729479,471.31582 146.329479,471.81582 C148.929479,472.51582 149.029479,472.81582 148.429479,476.81582 C142.529479,517.71582 123.629479,543.51582 86.7294786,561.01582 C68.5294786,569.61582 47.9294786,575.21582 16.9294786,580.01582 C-1.47052144,582.91582 0.0294785571,582.71582 0.0294785571,581.81582 Z" id="路径" transform="translate(74.366037, 526.711460) scale(-1, 1) rotate(-180.000000) translate(-74.366037, -526.711460) "></path>
                    <path d="M1034.22948,668.971229 C1023.92948,634.971229 1020.42948,613.671229 1021.32948,590.571229 C1022.42948,562.271229 1030.82948,542.271229 1049.62948,523.371229 C1058.02948,514.871229 1072.42948,503.971229 1073.92948,504.971229 C1075.82948,506.071229 1085.02948,521.771229 1088.02948,529.171229 C1097.52948,551.871229 1098.22948,574.071229 1090.52948,600.971229 C1087.12948,612.671229 1075.22948,636.971229 1066.02948,650.971229 C1058.42948,662.371229 1040.92948,686.371229 1040.02948,686.471229 C1039.72948,686.471229 1037.12948,678.571229 1034.22948,668.971229 Z" id="路径" transform="translate(1058.489606, 595.689165) scale(-1, 1) rotate(-180.000000) translate(-1058.489606, -595.689165) "></path>
                    <path d="M229.229479,675.207101 C185.829479,617.407101 174.429479,572.807101 192.429479,531.207101 C196.029479,523.007101 200.829479,514.407101 204.629479,509.707101 L206.829479,506.907101 L212.129479,510.607101 C235.029479,526.407101 249.129479,545.607101 255.729479,569.907101 C258.329479,579.207101 258.529479,581.307101 258.529479,599.407101 C258.529479,619.907101 257.629479,627.007101 252.529479,647.907101 C249.029479,662.107101 240.829479,688.407101 239.929479,688.407101 C239.529479,688.407101 234.629479,682.407101 229.229479,675.207101 Z" id="路径" transform="translate(221.383382, 597.657101) scale(-1, 1) rotate(-180.000000) translate(-221.383382, -597.657101) "></path>
                    <path d="M980.829479,759.507101 C957.029479,715.507101 947.829479,687.607101 947.929479,659.407101 C948.029479,630.507101 958.929479,606.507101 981.729479,585.207101 L984.729479,582.507101 L991.029479,588.907101 C1014.42948,612.807101 1023.82948,643.407101 1018.42948,679.307101 C1015.32948,700.307101 1007.62948,722.707101 993.729479,751.007101 L985.429479,767.907101 L980.829479,759.507101 Z" id="路径" transform="translate(983.920375, 675.207101) scale(-1, 1) rotate(-180.000000) translate(-983.920375, -675.207101) "></path>
                    <path d="M286.329479,753.339942 C276.329479,732.739942 270.829479,719.139942 266.529479,703.839942 C255.429479,665.539942 259.029479,632.439942 277.129479,605.639942 C282.629479,597.639942 293.829479,585.039942 295.529479,585.039942 C297.729479,585.039942 312.629479,602.539942 318.129479,611.439942 C335.029479,638.939942 336.729479,670.039942 323.429479,709.239942 C319.629479,720.739942 299.829479,762.839942 295.629479,768.539942 C294.629479,769.939942 293.329479,767.839942 286.329479,753.339942 Z" id="路径" transform="translate(296.244539, 676.973522) scale(-1, 1) rotate(-180.000000) translate(-296.244539, -676.973522) "></path>
                    <path d="M1221.62948,680.449297 C1179.12948,676.949297 1148.82948,666.349297 1129.32948,648.149297 C1114.22948,634.049297 1106.02948,620.249297 1099.52948,598.249297 L1097.22948,590.449297 L1099.82948,589.449297 C1107.82948,586.449297 1118.12948,585.049297 1133.02948,585.049297 C1146.12948,585.149297 1149.82948,585.449297 1157.02948,587.449297 C1190.02948,596.649297 1218.52948,621.349297 1249.82948,668.249297 C1254.32948,674.949297 1258.02948,680.649297 1258.02948,680.949297 C1258.02948,681.749297 1233.42948,681.449297 1221.62948,680.449297 Z" id="路径" transform="translate(1177.629480, 633.228199) scale(-1, 1) rotate(-180.000000) translate(-1177.629480, -633.228199) "></path>
                    <path d="M22.0294786,681.876478 C22.0294786,680.276478 41.0294786,652.776478 49.3294786,642.476478 C59.7294786,629.576478 77.0294786,612.576478 87.0294786,605.576478 C97.0294786,598.576478 110.029479,592.076478 120.729479,588.776478 C128.829479,586.376478 131.029479,586.076478 147.029479,586.076478 C162.129479,585.976478 165.729479,586.276478 173.729479,588.276478 L182.829479,590.576478 L180.929479,597.776478 C167.229479,647.276478 132.929479,672.676478 69.8294786,679.876478 C54.4294786,681.676478 22.0294786,683.076478 22.0294786,681.876478 Z" id="路径" transform="translate(102.429479, 634.191789) scale(-1, 1) rotate(-180.000000) translate(-102.429479, -634.191789) "></path>
                    <path d="M906.329479,813.824978 C880.829479,788.624978 866.429479,769.624978 858.029479,750.124978 C847.729479,726.124978 846.529479,704.124978 854.229479,679.824978 C856.629479,672.224978 862.929479,657.824978 864.629479,655.924978 C864.829479,655.724978 868.229479,657.224978 872.229479,659.324978 C901.829479,674.324978 920.429479,699.624978 927.429479,734.424978 C931.429479,754.224978 931.229479,785.424978 927.029479,814.624978 C925.929479,822.124978 925.029479,828.924978 925.029479,829.624978 C925.029479,830.224978 924.629479,830.824978 924.229479,830.824978 C923.829479,830.824978 915.729479,823.224978 906.329479,813.824978 Z" id="路径" transform="translate(889.778899, 743.366039) scale(-1, 1) rotate(-180.000000) translate(-889.778899, -743.366039) "></path>
                    <path d="M354.229479,824.207101 C349.929479,795.807101 348.629479,763.907101 350.929479,745.807101 C353.429479,726.807101 359.729479,708.507101 368.429479,694.907101 C374.329479,685.807101 387.129479,673.007101 396.529479,666.907101 C403.729479,662.207101 413.329479,657.007101 414.829479,657.007101 C417.129479,657.007101 426.329479,679.807101 429.129479,692.507101 C431.329479,702.407101 430.829479,722.907101 428.129479,733.007101 C423.329479,751.007101 415.329479,766.607101 401.929479,784.007101 C394.629479,793.507101 368.629479,820.807101 359.929479,828.107101 L355.329479,831.907101 L354.229479,824.207101 Z" id="路径" transform="translate(390.158409, 744.457101) scale(-1, 1) rotate(-180.000000) translate(-390.158409, -744.457101) "></path>
                    <path d="M1098.62948,773.446429 C1067.12948,768.346429 1043.72948,753.546429 1027.42948,728.446429 C1021.92948,719.946429 1017.02948,710.746429 1017.02948,708.946429 C1017.02948,707.146429 1033.42948,699.946429 1043.52948,697.446429 C1078.82948,688.446429 1113.22948,698.546429 1151.52948,728.946429 C1155.92948,732.446429 1166.92948,742.646429 1175.92948,751.546429 L1192.42948,767.646429 L1185.42948,768.846429 C1160.92948,773.146429 1151.62948,774.146429 1130.02948,774.446429 C1113.52948,774.746429 1105.12948,774.546429 1098.62948,773.446429 Z" id="路径" transform="translate(1104.729480, 734.426764) scale(-1, 1) rotate(-180.000000) translate(-1104.729480, -734.426764) "></path>
                    <path d="M130.029479,774.790103 C120.929479,773.790103 88.7294786,768.890103 88.2294786,768.390103 C87.6294786,767.790103 114.629479,741.390103 123.029479,734.290103 C143.629479,716.890103 167.129479,703.590103 186.029479,698.390103 C203.229479,693.690103 223.229479,693.990103 239.929479,699.090103 C250.929479,702.390103 263.029479,707.990103 263.029479,709.690103 C263.029479,712.190103 254.229479,727.490103 247.929479,735.790103 C231.029479,758.290103 207.529479,770.990103 176.029479,774.890103 C166.129479,776.090103 142.229479,775.990103 130.029479,774.790103 Z" id="路径" transform="translate(175.624557, 735.398602) scale(-1, 1) rotate(-180.000000) translate(-175.624557, -735.398602) "></path>
                    <path d="M835.529479,867.655639 C833.929479,867.255639 825.329479,865.255639 816.529479,863.255639 C749.429479,848.055639 713.629479,821.255639 702.029479,777.355639 C699.829479,768.955639 697.229479,749.355639 698.229479,748.355639 C699.529479,747.055639 725.829479,747.855639 733.929479,749.355639 C770.229479,756.355639 798.829479,782.555639 823.329479,831.455639 C828.629479,842.055639 839.229479,866.855639 838.829479,867.855639 C838.629479,868.155639 837.229479,868.155639 835.529479,867.655639 Z" id="路径" transform="translate(768.424721, 807.881369) scale(-1, 1) rotate(-180.000000) translate(-768.424721, -807.881369) "></path>
                    <path d="M441.029479,869.0767 C441.029479,867.6767 449.529479,848.0767 455.429479,835.8767 C466.929479,812.0767 477.829479,795.4767 490.929479,782.0767 C507.429479,764.9767 524.029479,755.4767 545.429479,750.6767 C552.829479,749.0767 580.229479,748.2767 581.629479,749.6767 C582.829479,750.7767 580.429479,769.6767 578.029479,778.8767 C576.829479,783.2767 573.929479,791.0767 571.429479,796.2767 C555.229479,830.6767 522.629479,850.9767 460.729479,865.2767 C443.629479,869.1767 441.029479,869.7767 441.029479,869.0767 Z" id="路径" transform="translate(511.489071, 809.141901) scale(-1, 1) rotate(-180.000000) translate(-511.489071, -809.141901) "></path>
                    <path d="M992.529479,853.205099 C969.629479,850.905099 949.429479,841.405099 932.829479,824.905099 C925.829479,818.005099 917.029479,807.205099 917.029479,805.505099 C917.029479,804.005099 931.029479,794.705099 939.729479,790.305099 C952.829479,783.805099 963.429479,781.105099 979.029479,780.605099 C1004.22948,779.705099 1027.22948,786.005099 1056.52948,802.105099 C1066.32948,807.405099 1100.02948,829.305099 1100.02948,830.305099 C1100.02948,831.205099 1064.72948,843.305099 1051.92948,846.705099 C1030.72948,852.405099 1008.92948,854.805099 992.529479,853.205099 Z" id="路径" transform="translate(1008.529480, 817.106100) scale(-1, 1) rotate(-180.000000) translate(-1008.529480, -817.106100) "></path>
                    <path d="M259.029479,854.867713 C257.629479,854.667713 253.429479,853.967713 249.529479,853.367713 C234.729479,851.067713 207.829479,843.167713 182.629479,833.467713 L179.729479,832.367713 L186.129479,827.767713 C199.029479,818.267713 218.929479,806.167713 232.529479,799.467713 C258.329479,786.767713 275.429479,782.267713 297.029479,782.267713 C312.729479,782.367713 324.429479,784.767713 337.529479,790.867713 C345.129479,794.367713 361.329479,804.567713 362.629479,806.567713 C363.529479,808.167713 358.529479,814.967713 349.329479,824.567713 C335.429479,838.967713 320.829479,847.767713 303.029479,852.467713 C296.229479,854.267713 291.229479,854.767713 278.029479,854.967713 C268.929479,855.167713 260.429479,855.167713 259.029479,854.867713 Z" id="路径" transform="translate(271.231346, 818.687407) scale(-1, 1) rotate(-180.000000) translate(-271.231346, -818.687407) "></path>
                    <path d="M855.929479,915.580041 C847.329479,913.980041 836.129479,910.080041 827.929479,905.980041 C821.929479,902.980041 809.929479,895.080041 806.329479,891.780041 L804.129479,889.780041 L808.429479,884.180041 C819.229479,870.180041 835.729479,857.280041 850.529479,851.180041 C873.629479,841.580041 903.229479,840.680041 938.529479,848.580041 C951.429479,851.480041 987.029479,862.680041 987.029479,863.880041 C987.029479,864.680041 961.629479,882.880041 953.029479,888.280041 C933.529479,900.680041 914.529479,909.280041 897.929479,913.480041 C884.729479,916.880041 867.029479,917.680041 855.929479,915.580041 Z" id="路径" transform="translate(895.579479, 879.993571) scale(-1, 1) rotate(-180.000000) translate(-895.579479, -879.993571) "></path>
                    <path d="M395.829479,916.995211 C369.429479,913.695211 338.829479,898.895211 302.629479,871.995211 L292.629479,864.595211 L295.629479,863.295211 C301.629479,860.695211 323.329479,853.895211 334.729479,850.995211 C353.329479,846.295211 363.329479,844.795211 380.129479,844.295211 C409.229479,843.295211 430.429479,849.095211 449.929479,863.495211 C457.029479,868.795211 468.129479,879.795211 472.929479,886.495211 L476.129479,890.895211 L469.829479,895.595211 C446.629479,912.695211 420.729479,920.195211 395.829479,916.995211 Z" id="路径" transform="translate(384.379479, 880.951155) scale(-1, 1) rotate(-180.000000) translate(-384.379479, -880.951155) "></path>
                    <path d="M634.329479,915.980232 C619.029479,912.380232 610.829479,895.580232 617.429479,881.480232 C626.429479,862.080232 653.729479,862.380232 662.329479,881.980232 C668.229479,895.280232 660.929479,911.280232 646.929479,915.380232 C641.229479,917.080232 639.329479,917.180232 634.329479,915.980232 Z" id="路径" transform="translate(639.757441, 891.943667) scale(-1, 1) rotate(-180.000000) translate(-639.757441, -891.943667) "></path>
                    <path d="M733.529479,961.950682 C717.629479,959.950682 700.929479,953.750682 686.229479,944.450682 L680.929479,941.050682 L686.129479,933.050682 C696.129479,917.950682 713.629479,902.650682 728.429479,896.150682 C758.729479,882.750682 796.529479,882.650682 849.329479,895.950682 L862.129479,899.150682 L849.829479,909.750682 C825.629479,930.550682 811.429479,940.450682 792.529479,949.750682 C771.629479,959.950682 751.229479,964.150682 733.529479,961.950682 Z" id="路径" transform="translate(771.529479, 924.278892) scale(-1, 1) rotate(-180.000000) translate(-771.529479, -924.278892) "></path>
                    <path d="M525.529479,962.617136 C494.029479,958.317136 462.529479,940.117136 419.229479,901.117136 C418.129479,900.217136 420.829479,899.217136 432.729479,896.417136 C463.729479,888.917136 476.329479,887.217136 499.529479,887.317136 C524.529479,887.317136 540.029479,890.717136 557.029479,899.817136 C571.029479,907.317136 584.129479,919.517136 593.929479,934.117136 L599.129479,941.717136 L592.829479,945.817136 C572.029479,959.217136 546.829479,965.517136 525.529479,962.617136 Z" id="路径" transform="translate(509.067205, 925.312119) scale(-1, 1) rotate(-180.000000) translate(-509.067205, -925.312119) "></path>
                </g>
            </g>
        </g>
    </g>
</svg>