<?xml version="1.0" encoding="UTF-8"?>
<svg width="1015px" height="770px" viewBox="0 0 1015 770" version="1.1" xmlns="http://www.w3.org/2000/svg" xmlns:xlink="http://www.w3.org/1999/xlink">
    <title>未命名</title>
    <g id="页面-1" stroke="none" stroke-width="1" fill="none" fill-rule="evenodd">
        <g id="东山风动石开了房女的" fill-rule="nonzero">
            <g id="编组-3" transform="translate(0.970521, 0.092899)" fill="#C29D4D">
                <g id="编组-2" transform="translate(0.029479, 0.907101)">
                    <path d="M763.924951,113.924904 C763.924951,113.6859 764.952976,108.188805 766.297316,101.735693 C771.042047,77.5962736 775.075068,64.6900495 782.508479,49.393784 C794.686622,24.0593441 811.688574,9.24108685 835.570385,3.18631506 C842.76656,1.27428186 855.656412,-0.558083292 856.4472,0.158929156 C856.684437,0.397933305 856.842594,6.69170925 856.842594,14.180506 C856.842594,26.1307134 856.605358,28.7597591 854.944702,34.6551948 C848.539316,57.8385973 832.960783,76.7995931 806.785686,93.0518756 C799.035959,97.9116266 780.689666,107.392124 770.80481,111.614531 C764.241266,114.482581 763.924951,114.562249 763.924951,113.924904 Z" id="路径" transform="translate(810.383772, 57.124617) scale(-1, 1) rotate(-180.000000) translate(-810.383772, -57.124617) "></path>
                    <path d="M243.981547,114.043913 C242.241813,113.167564 235.59919,110.06051 229.272882,107.033124 C184.435177,85.6820865 161.739549,61.6223359 156.20403,29.6754479 C154.938768,22.7443276 154.622453,10.9534562 155.49232,4.58001225 L156.045872,0.835613914 L159.683499,1.31362221 C174.708479,3.30532345 183.328074,5.6156969 192.580298,10.2364438 C215.7504,21.9476471 231.566169,45.0513815 241.134709,81.3800118 C243.269838,89.3468168 248.330884,113.087896 248.330884,114.999929 C248.330884,115.876278 247.619174,115.716942 243.981547,114.043913 Z" id="路径" transform="translate(201.666194, 58.179972) scale(-1, 1) rotate(-180.000000) translate(-201.666194, -58.179972) "></path>
                    <path d="M889.343999,160.377442 C879.06375,139.504413 873.132836,123.969143 869.732446,108.593209 C867.201923,97.2803467 867.201923,78.1600145 869.732446,68.5201804 C873.370073,54.8969439 880.170853,43.1857406 891.162813,31.6338734 L897.805436,24.623085 L900.96859,27.6504709 C909.509105,35.85628 918.207778,50.5948692 921.687247,62.5450767 C925.166716,74.6546203 925.483031,92.2612596 922.478035,107.159185 C920.738301,115.763334 915.202782,132.25462 910.220814,143.408147 C906.108714,152.649641 896.223859,172.088645 895.591228,172.088645 C895.353992,172.088645 892.586232,166.830554 889.343999,160.377442 Z" id="路径" transform="translate(896.183289, 98.355865) scale(-1, 1) rotate(-180.000000) translate(-896.183289, -98.355865) "></path>
                    <path d="M111.366325,163.165823 C94.9179252,131.935947 87.7217504,108.51354 87.7217504,86.6844946 C87.7217504,75.7699715 88.5125388,69.8745358 91.1221407,61.5093906 C94.4434522,50.5948677 102.351337,37.4496395 110.180142,29.6421707 L114.4504,25.419764 L120.539471,31.7135399 C128.13104,39.4413408 132.796692,46.0537889 137.304186,55.3749507 C141.81168,64.6961126 143.86773,73.1409258 144.500361,84.5334573 C145.528386,104.928478 139.281157,127.394868 123.860782,159.18242 C120.144077,166.671217 116.980923,172.885325 116.822765,172.885325 C116.664608,172.885325 114.213163,168.503582 111.366325,163.165823 Z" id="路径" transform="translate(116.165200, 99.152544) scale(-1, 1) rotate(-180.000000) translate(-116.165200, -99.152544) "></path>
                    <path d="M781.322297,209.232671 C781.322297,207.400306 791.839784,176.807775 795.002938,169.318978 C809.316209,135.778729 827.899737,116.738066 853.284046,109.408605 C865.224952,105.903211 884.52019,104.389518 885.390057,106.859227 C885.627294,107.496572 885.469136,112.276655 884.994663,117.455078 C881.277957,158.324788 856.051806,183.9779 800.30122,203.655908 C786.225185,208.674995 781.322297,210.10902 781.322297,209.232671 Z" id="路径" transform="translate(833.410674, 157.558585) scale(-1, 1) rotate(-180.000000) translate(-833.410674, -157.558585) "></path>
                    <path d="M217.09474,206.184171 C185.700439,195.508652 167.11691,185.39081 151.933772,170.65222 C136.038924,155.276287 128.526434,138.227324 126.944857,114.565913 L126.391305,106.280436 L137.383265,106.758445 C178.267027,108.59081 204.363046,132.092884 222.472102,183.399108 C226.03065,193.437283 231.170775,210.167573 230.77538,210.486245 C230.617223,210.565913 224.528152,208.65388 217.09474,206.184171 Z" id="路径" transform="translate(178.594101, 158.384542) scale(-1, 1) rotate(-180.000000) translate(-178.594101, -158.384542) "></path>
                    <path d="M950.155631,275.851971 C925.087637,244.383092 912.830416,221.677698 909.430026,200.246992 C908.006607,191.483507 908.797395,175.390561 911.011603,167.742428 C913.22581,159.934959 917.970541,149.737449 923.031587,142.089316 C927.539081,135.158195 926.748293,135.237863 934.339862,140.894295 C964.864296,163.679357 974.116521,198.653631 963.20364,249.322511 C961.305748,258.006328 955.374835,279.437034 954.663125,280.233714 C954.34681,280.552386 952.29076,278.560685 950.155631,275.851971 Z" id="路径" transform="translate(938.163102, 208.514708) scale(-1, 1) rotate(-180.000000) translate(-938.163102, -208.514708) "></path>
                    <path d="M57.5136314,281.924602 C56.8019218,280.729582 50.6337719,258.024187 49.052195,250.854063 C40.2744433,210.382694 44.5447009,179.790162 62.1002044,157.642445 C64.9470428,154.057382 69.1382216,149.516304 71.4315081,147.60427 C76.7297906,143.063191 84.0841235,137.486428 84.7958331,137.486428 C85.6657004,137.486428 92.1501657,147.843274 95.6296348,154.774395 C100.927917,165.529582 102.983967,173.576055 103.379362,186.163606 C103.695677,194.449084 103.537519,198.512154 102.509494,203.690577 C98.9509463,221.297216 91.5966138,236.832486 76.9670272,257.625847 C69.2173004,268.54037 57.9881045,282.641615 57.5136314,281.924602 Z" id="路径" transform="translate(74.078845, 209.718655) scale(-1, 1) rotate(-180.000000) translate(-74.078845, -209.718655) "></path>
                    <path d="M837.784593,320.669558 C839.840643,271.195699 850.27905,241.877856 872.18389,224.191549 C881.910588,216.38408 897.330963,208.974952 907.611213,207.301923 L910.853445,206.744246 L912.672259,214.153375 C915.28186,224.908562 915.360939,243.391549 912.751337,253.031383 C908.006607,270.71769 896.698332,287.846321 879.380065,303.700263 C870.048761,312.224744 852.572337,325.210636 840.315116,332.699433 L837.231041,334.611466 L837.784593,320.669558 Z" id="路径" transform="translate(875.950245, 270.677856) scale(-1, 1) rotate(-180.000000) translate(-875.950245, -270.677856) "></path>
                    <path d="M161.739549,326.724329 C145.92378,316.048811 139.439315,310.870388 128.684592,300.354205 C106.305279,278.445491 96.4995021,257.094454 97.5275271,232.158354 C98.0020002,220.447151 100.690681,207.859599 102.746731,207.859599 C108.440408,207.859599 126.312227,215.268728 135.327215,221.482836 C154.780611,234.628064 167.433226,258.926819 171.94072,291.351715 C173.443218,301.947566 175.024795,325.290305 174.629401,331.106072 L174.392164,335.328479 L161.739549,326.724329 Z" id="路径" transform="translate(136.072747, 271.594039) scale(-1, 1) rotate(-180.000000) translate(-136.072747, -271.594039) "></path>
                    <path d="M986.769136,376.676198 C961.305748,361.220596 944.857348,347.597359 934.49802,333.416447 C922.398956,316.845492 917.416989,300.832214 918.365935,281.871218 C918.76133,273.984081 920.501064,263.308563 922.082641,259.086156 L922.794351,257.253791 L928.171712,258.608148 C959.170619,266.734289 979.889277,288.643003 990.090447,324.334289 C993.016365,334.452131 996.021361,351.979102 997.128465,365.443003 C998.472805,380.978272 998.710042,383.766654 998.472805,383.766654 C998.393726,383.766654 993.095444,380.579932 986.769136,376.676198 Z" id="路径" transform="translate(958.403209, 320.510222) scale(-1, 1) rotate(-180.000000) translate(-958.403209, -320.510222) "></path>
                    <path d="M13.7830303,382.173293 C14.0202668,380.739268 14.4156611,376.118521 14.6528976,371.975783 C18.2905245,315.809808 36.1623433,280.915202 69.0591427,265.618936 C73.9620311,263.308563 87.405435,258.847152 89.3033273,258.847152 C90.0150369,258.847152 92.2292445,268.247982 93.4154272,276.374123 C94.6016099,284.181592 93.8108214,299.079517 91.9129291,306.249642 C85.5075427,329.751716 69.3754581,349.111052 39.1673394,369.585741 C31.4966915,374.764164 15.0482918,384.722671 14.0993457,384.722671 C13.7039515,384.722671 13.5457938,383.52765 13.7830303,382.173293 Z" id="路径" transform="translate(53.823475, 321.784912) scale(-1, 1) rotate(-180.000000) translate(-53.823475, -321.784912) "></path>
                    <path d="M841.580377,439.537828 C833.435256,401.217496 832.802625,372.218326 839.603406,351.584301 C846.246029,331.109613 858.50325,316.9287 879.69638,305.217496 C882.701376,303.544467 885.231899,302.269779 885.390057,302.349447 C885.469136,302.508783 886.971634,305.456501 888.711369,308.961895 C895.353992,322.346127 898.042672,335.332019 897.330963,349.433264 C895.828465,376.440733 881.1198,403.448202 850.437208,435.156086 L842.371166,443.521231 L841.580377,439.537828 Z" id="路径" transform="translate(866.193257, 372.933570) scale(-1, 1) rotate(-180.000000) translate(-866.193257, -372.933570) "></path>
                    <path d="M160.31613,434.574906 C146.081938,419.198973 138.490369,409.718475 131.294194,398.08694 C112.39435,367.733413 109.705669,339.052915 122.990915,310.850425 C126.865778,302.564948 126.549463,302.88362 130.582484,304.875321 C137.541423,308.460384 147.109963,315.232168 152.882718,320.729263 C165.77257,333.077811 173.601376,349.011421 176.369135,368.291089 C177.634397,377.213911 177.39716,398.325944 175.894662,410.037147 C174.629401,419.836317 170.438222,443.41806 169.805591,444.055404 C169.568355,444.214741 165.377176,439.992334 160.31613,434.574906 Z" id="路径" transform="translate(145.953981, 373.877832) scale(-1, 1) rotate(-180.000000) translate(-145.953981, -373.877832) "></path>
                    <path d="M997.602938,461.711461 C958.063515,455.338017 934.260783,445.618515 917.654226,429.047561 C908.955553,420.443412 902.31293,409.130548 898.358988,396.224324 C896.698332,390.886565 894.167809,376.864988 894.721361,376.307312 C895.512149,375.510631 905.950557,374.474947 913.383968,374.474947 C946.359846,374.474947 973.246654,393.674947 997.128465,434.305652 C1001.71504,442.113121 1012.23252,462.269138 1012.23252,463.225154 C1012.23252,463.942167 1009.54384,463.703163 997.602938,461.711461 Z" id="路径" transform="translate(953.438114, 419.034491) scale(-1, 1) rotate(-180.000000) translate(-953.438114, -419.034491) "></path>
                    <path d="M0.0233113024,463.521317 C0.0233113024,463.282313 2.94922856,457.227541 6.58685541,450.216753 C18.6859187,426.63501 27.3055127,414.127126 40.2744433,401.061566 C53.0061373,388.314678 64.6307274,381.064885 79.1812351,377.081483 C84.9539908,375.488122 87.6426715,375.249118 99.6626559,375.249118 C107.254225,375.249118 114.4504,375.488122 115.715661,375.886462 C117.771711,376.444138 117.85079,376.683143 117.376317,379.869865 C112.710665,412.454097 97.7647636,433.008454 68.5846697,446.950363 C54.1923199,453.801815 37.9020779,458.263226 13.3876361,462.087292 C-1.16287137,464.397665 0.0233113024,464.238329 0.0233113024,463.521317 Z" id="路径" transform="translate(58.807803, 419.620748) scale(-1, 1) rotate(-180.000000) translate(-58.807803, -419.620748) "></path>
                    <path d="M817.856724,532.956331 C809.711603,505.869194 806.943843,488.899899 807.655553,470.49658 C808.52542,447.950522 815.168043,432.016912 830.034866,416.959651 C836.677489,410.187866 848.064842,401.504049 849.251025,402.300729 C850.753523,403.177078 858.028777,415.684962 860.401142,421.580397 C867.913633,439.665045 868.467184,457.351352 862.378113,478.782057 C859.689433,488.103219 850.27905,507.462555 843.003796,518.616082 C836.993804,527.69824 823.155006,546.818572 822.443297,546.89824 C822.20606,546.89824 820.15001,540.604464 817.856724,532.956331 Z" id="路径" transform="translate(837.041351, 474.573939) scale(-1, 1) rotate(-180.000000) translate(-837.041351, -474.573939) "></path>
                    <path d="M181.272024,537.924329 C146.951805,491.876197 137.936817,456.344246 152.171009,423.202338 C155.017847,416.669558 158.813632,409.818105 161.818628,406.073707 L163.558362,403.843002 L167.749541,406.790719 C185.858597,419.378271 197.008714,434.674537 202.227917,454.033873 C204.283967,461.443002 204.442125,463.116031 204.442125,477.535948 C204.442125,493.867898 203.730415,499.524329 199.697394,516.174952 C196.929635,527.487815 190.44517,548.440512 189.73346,548.440512 C189.417145,548.440512 185.542281,543.660429 181.272024,537.924329 Z" id="路径" transform="translate(175.067421, 476.141757) scale(-1, 1) rotate(-180.000000) translate(-175.067421, -476.141757) "></path>
                    <path d="M775.62862,605.084492 C756.807855,570.03055 749.532601,547.803165 749.61168,525.336775 C749.690759,502.312708 758.310353,483.192376 776.34033,466.223082 L778.712695,464.072044 L783.694662,469.170799 C802.199113,488.211463 809.632524,512.589887 805.362266,541.190716 C802.910822,557.921007 796.821751,575.76665 785.829791,598.312708 L779.266247,611.776609 L775.62862,605.084492 Z" id="路径" transform="translate(778.072865, 537.924326) scale(-1, 1) rotate(-180.000000) translate(-778.072865, -537.924326) "></path>
                    <path d="M226.426044,600.171239 C218.518159,583.75962 214.168823,572.924766 210.768433,560.735554 C201.990681,530.222691 204.837519,503.852566 219.15079,482.501529 C223.500127,476.128085 232.356957,466.089911 233.701298,466.089911 C235.441032,466.089911 247.22378,480.031819 251.573116,487.122276 C264.937441,509.03099 266.281782,533.807753 255.764295,565.037629 C252.759299,574.199454 237.101688,607.739703 233.780376,612.280782 C232.989588,613.396135 231.961563,611.723106 226.426044,600.171239 Z" id="路径" transform="translate(234.266759, 539.331600) scale(-1, 1) rotate(-180.000000) translate(-234.266759, -539.331600) "></path>
                    <path d="M966.050479,542.100684 C932.44197,539.312302 908.48108,530.867489 893.060705,516.367904 C881.1198,505.134709 874.635334,494.140518 869.495209,476.613547 L867.676396,470.399439 L869.732446,469.602758 C876.058754,467.212717 884.203875,466.097364 895.986622,466.097364 C906.345951,466.177032 909.271868,466.416036 914.965545,468.009397 C941.061564,475.338858 963.599035,495.016866 988.350713,532.381182 C991.909261,537.718941 994.835178,542.26002 994.835178,542.499024 C994.835178,543.136368 975.381782,542.897364 966.050479,542.100684 Z" id="路径" transform="translate(931.255787, 504.480555) scale(-1, 1) rotate(-180.000000) translate(-931.255787, -504.480555) "></path>
                    <path d="M17.4206572,543.237692 C17.4206572,541.963003 32.4456376,520.054289 39.0091818,511.84848 C47.2333816,501.571302 60.9140217,488.027733 68.8219062,482.45097 C76.7297906,476.874206 87.0100408,471.695783 95.4714771,469.066737 C101.876864,467.154704 103.616598,466.9157 116.269213,466.9157 C128.210119,466.836032 131.056957,467.075036 137.383265,468.668397 L144.57944,470.500762 L143.076942,476.236862 C132.24314,515.672547 105.119096,535.908231 55.2203449,541.644331 C43.0422028,543.078356 17.4206572,544.193708 17.4206572,543.237692 Z" id="路径" transform="translate(81.000049, 505.248230) scale(-1, 1) rotate(-180.000000) translate(-81.000049, -505.248230) "></path>
                    <path d="M716.714881,648.358488 C696.549775,628.28214 685.162422,613.14521 678.519799,597.609941 C670.374678,578.489609 669.425732,560.962638 675.514803,541.603302 C677.412695,535.54853 682.394662,524.076331 683.739003,522.562638 C683.89716,522.403302 686.585841,523.598322 689.748995,525.271351 C713.156333,537.221559 727.864998,557.377576 733.400517,585.102057 C736.563671,600.876331 736.405513,625.732762 733.084202,648.995833 C732.214334,654.970937 731.502625,660.388364 731.502625,660.94604 C731.502625,661.424049 731.186309,661.902057 730.869994,661.902057 C730.553679,661.902057 724.148292,655.847285 716.714881,648.358488 Z" id="路径" transform="translate(703.626873, 592.225226) scale(-1, 1) rotate(-180.000000) translate(-703.626873, -592.225226) "></path>
                    <path d="M280.120579,656.629725 C276.720189,634.003998 275.692164,608.589891 277.510978,594.169974 C279.487949,579.033044 284.469916,564.453791 291.349775,553.618936 C296.015427,546.369144 306.137519,536.171633 313.570931,531.311882 C319.264608,527.567484 326.856177,523.424745 328.042359,523.424745 C329.861173,523.424745 337.136426,541.589061 339.350634,551.706903 C341.090369,559.59404 340.694974,575.92599 338.559846,583.972463 C334.764061,598.312712 328.437753,610.740928 317.841188,624.603169 C312.068433,632.171633 291.507933,653.921011 284.628074,659.736779 L280.990447,662.764164 L280.120579,656.629725 Z" id="路径" transform="translate(308.532762, 593.094454) scale(-1, 1) rotate(-180.000000) translate(-308.532762, -593.094454) "></path>
                    <path d="M868.7835,616.189687 C843.873664,612.126616 825.369214,600.335745 812.479362,580.339064 C808.130026,573.56728 804.255163,566.23782 804.255163,564.803795 C804.255163,563.36977 817.224093,557.63367 825.211056,555.641969 C853.125889,548.471845 880.329011,556.518318 910.616209,580.737405 C914.095678,583.525786 922.794351,591.651928 929.911447,598.742384 L942.959456,611.56894 L937.423937,612.524957 C918.04962,615.950683 910.695287,616.747363 893.614257,616.986367 C880.566248,617.225371 873.923625,617.066035 868.7835,616.189687 Z" id="路径" transform="translate(873.607310, 585.103481) scale(-1, 1) rotate(-180.000000) translate(-873.607310, -585.103481) "></path>
                    <path d="M102.82581,617.260164 C95.6296348,616.463484 70.1662465,612.559749 69.7708523,612.161409 C69.2963793,611.683401 90.6476676,590.651036 97.2902906,584.994604 C113.580533,571.132363 132.164061,560.536513 147.109963,556.393774 C160.711524,552.649376 176.527293,552.88838 189.73346,556.951451 C198.432133,559.580496 208.000673,564.041907 208.000673,565.396264 C208.000673,567.387965 201.041735,579.577177 196.059768,586.189625 C182.695443,604.114936 164.111914,614.232778 139.202078,617.339832 C131.373273,618.295849 112.473429,618.216181 102.82581,617.260164 Z" id="路径" transform="translate(138.881871, 585.877723) scale(-1, 1) rotate(-180.000000) translate(-138.881871, -585.877723) "></path>
                    <path d="M660.727059,691.244328 C659.461797,690.925656 652.661017,689.332295 645.702078,687.738934 C592.640173,675.62939 564.329947,654.278353 555.156801,619.304079 C553.417067,612.611963 551.361017,596.997025 552.151805,596.200345 C553.17983,595.16466 573.977566,595.802004 580.382953,596.997025 C609.088573,602.573789 631.705123,623.446818 651.07944,662.404494 C655.270618,670.849307 663.652976,690.606984 663.336661,691.403664 C663.178503,691.642668 662.071399,691.642668 660.727059,691.244328 Z" id="路径" transform="translate(607.661392, 643.623334) scale(-1, 1) rotate(-180.000000) translate(-607.661392, -643.623334) "></path>
                    <path d="M348.761017,692.376458 C348.761017,691.261106 355.482718,675.646168 360.14837,665.926666 C369.242437,646.96567 377.862031,633.740774 388.22136,623.065255 C401.269369,609.442019 414.396458,601.873554 431.31933,598.049487 C437.171165,596.774799 458.838768,596.137454 459.945872,597.252807 C460.894818,598.129156 458.996926,613.186417 457.099034,620.515877 C456.150088,624.021272 453.856801,630.23538 451.87983,634.378118 C439.069057,661.783927 413.289354,677.956541 364.339549,689.349073 C350.817067,692.456126 348.761017,692.934135 348.761017,692.376458 Z" id="路径" transform="translate(404.479648, 644.627573) scale(-1, 1) rotate(-180.000000) translate(-404.479648, -644.627573) "></path>
                    <path d="M784.880845,679.731862 C766.771789,677.899497 750.797863,670.331033 737.670775,657.185804 C732.135255,651.688709 725.176317,643.08456 725.176317,641.730203 C725.176317,640.535182 736.247355,633.126053 743.127215,629.620659 C753.486544,624.442236 761.868901,622.291199 774.205201,621.892858 C794.13307,621.175846 812.321205,626.194933 835.491306,639.021489 C843.241033,643.243896 869.890604,660.691199 869.890604,661.487879 C869.890604,662.204891 841.975771,671.844725 831.853679,674.553439 C815.088964,679.094518 797.849776,681.006551 784.880845,679.731862 Z" id="路径" transform="translate(797.533460, 650.972493) scale(-1, 1) rotate(-180.000000) translate(-797.533460, -650.972493) "></path>
                    <path d="M204.837519,681.056435 C203.730415,680.897099 200.409104,680.339423 197.325029,679.861415 C185.62136,678.02905 164.349151,671.735274 144.421282,664.007473 L142.127995,663.131124 L147.189042,659.466394 C157.390213,651.897929 173.126903,642.258095 183.881625,636.920336 C204.283967,626.802494 217.80645,623.217431 234.88748,623.217431 C247.302859,623.297099 256.555084,625.209133 266.914412,630.068884 C272.924405,632.857265 285.735177,640.983406 286.763202,642.576767 C287.474912,643.851456 283.52097,649.268884 276.245716,656.917016 C265.253757,668.389216 253.708245,675.400004 239.632211,679.144402 C234.25485,680.578427 230.300907,680.976767 219.8625,681.136104 C212.666325,681.29544 205.944623,681.29544 204.837519,681.056435 Z" id="路径" transform="translate(214.486614, 652.232291) scale(-1, 1) rotate(-180.000000) translate(-214.486614, -652.232291) "></path>
                    <path d="M676.859143,729.424764 C670.058362,728.150075 661.201532,725.043021 654.717067,721.776631 C649.972336,719.38659 640.482874,713.092814 637.636036,710.463768 L635.896302,708.870407 L639.296692,704.408996 C647.837207,693.255469 660.885216,682.978291 672.588885,678.11854 C690.856099,670.470407 714.263437,669.753395 742.178269,676.047171 C752.37944,678.357544 780.531508,687.280366 780.531508,688.236382 C780.531508,688.873727 760.445482,703.373312 753.644701,707.675386 C738.224326,717.554225 723.199346,724.405677 710.072258,727.751735 C699.63385,730.460449 685.636895,731.097793 676.859143,729.424764 Z" id="路径" transform="translate(708.213905, 701.073718) scale(-1, 1) rotate(-180.000000) translate(-708.213905, -701.073718) "></path>
                    <path d="M313.017379,730.552202 C292.140564,727.923156 267.942437,716.132285 239.315896,694.70158 L231.408011,688.806144 L233.780376,687.770459 C238.525107,685.69909 255.685216,680.281663 264.700205,677.971289 C279.40887,674.226891 287.316754,673.03187 300.602,672.63353 C323.613944,671.836849 340.378659,676.457596 355.799034,687.929795 C361.413632,692.152202 370.191383,700.915687 373.987168,706.253447 L376.517691,709.758841 L371.535724,713.503239 C353.189432,727.126476 332.708011,733.10158 313.017379,730.552202 Z" id="路径" transform="translate(303.962851, 701.836606) scale(-1, 1) rotate(-180.000000) translate(-303.962851, -701.836606) "></path>
                    <path d="M501.620423,729.743586 C489.52136,726.875536 483.036895,713.491304 488.256099,702.258109 C495.373195,686.802507 516.961719,687.041511 523.7625,702.656449 C528.428152,713.252299 522.655396,725.999187 511.584358,729.265577 C507.076864,730.619934 505.574366,730.699602 501.620423,729.743586 Z" id="路径" transform="translate(505.912793, 710.594122) scale(-1, 1) rotate(-180.000000) translate(-505.912793, -710.594122) "></path>
                    <path d="M580.066637,766.367348 C567.493101,764.773987 554.286934,759.834567 542.662344,752.425439 L538.471165,749.716725 L542.583265,743.343281 C550.491149,731.313406 564.329947,719.124194 576.033616,713.945771 C599.994506,703.270252 629.886309,703.190584 671.639939,713.786435 L681.762031,716.335812 L672.035334,724.780626 C652.898253,741.35158 641.669057,749.238717 626.723156,756.647845 C610.195677,764.773987 594.063593,768.120045 580.066637,766.367348 Z" id="路径" transform="translate(610.116598, 736.354967) scale(-1, 1) rotate(-180.000000) translate(-610.116598, -736.354967) "></path>
                    <path d="M415.58264,766.898301 C390.672804,763.472575 365.762968,748.97299 331.521828,717.902451 C330.651961,717.185438 332.78709,716.388758 342.197472,714.158052 C366.711914,708.182949 376.675849,706.828592 395.022141,706.90826 C414.791852,706.90826 427.049073,709.616974 440.492476,716.866766 C451.563515,722.84187 461.922843,732.561372 469.67257,744.192907 L473.78467,750.247679 L468.802703,753.514069 C452.354303,764.189588 432.426434,769.208675 415.58264,766.898301 Z" id="路径" transform="translate(402.564464, 737.178122) scale(-1, 1) rotate(-180.000000) translate(-402.564464, -737.178122) "></path>
                </g>
            </g>
            <g id="编组-2" transform="translate(355.000000, 67.000000)">
                <polygon id="路径" fill="#FFFFFF" points="307 227 166.015452 341 25 227 166.015452 113"></polygon>
                <path d="M0.835630689,282 L0.835630689,100.342794 L85.5037348,2.84217094e-14 L85.5037348,153.472777 L108.473981,200.716731 L193.835631,282 L0.835630689,282 Z M0,410.021004 L357,410.021004 L357,455 L0,455 L0,410.021004 Z" id="形状" fill="#006400"></path>
                <polygon id="路径" fill="#FFFFFF" points="338 169.560377 197.06517 283 38 151.439623 178.93483 38"></polygon>
                <path d="M119,133.524982 L127.093288,125.770352 L184.700267,123.216247 C196.393991,122.693118 200.671433,118.938892 203.164042,116.723284 C210.241823,109.984141 211.072693,99.9831304 203.594864,93.8594346 C196.117035,87.7357389 184.607948,88.8127708 175.68379,97.3367091 L174.391326,98.5676027 L163.990066,90.1052091 L165.190211,88.9666325 C180.576691,74.1343644 200.609887,75.8268431 212.211292,85.2739516 C225.412892,96.0134985 225.566756,113.738367 213.288346,125.462628 C206.487522,131.955592 199.440514,134.694331 183.438576,135.555956 L143.279864,137.617703 L174.299007,162.851022 L165.28253,171.190326 L119,133.524982 L119,133.524982 Z M242.861159,197.623767 C227.782409,211.99445 207.287619,207.686322 196.701721,199.070067 C185.592683,190.022999 180.422826,172.482765 195.870851,157.742814 L221.473953,133.309575 C234.384127,120.747616 254.634918,119.783941 268.679672,131.063194 C274.939831,135.842612 278.72301,143.180393 278.985402,151.051988 C279.247794,158.923583 275.961665,166.497002 270.033682,171.682684 L242.861159,197.623767 L242.861159,197.623767 Z M259.755514,163.22029 C266.648656,156.635009 268.987401,146.91095 259.755514,139.340954 C251.626224,132.788781 239.827545,133.578915 232.644537,141.156522 L206.856797,165.774394 C198.948147,173.313618 196.763267,183.376173 205.872063,190.792307 C213.725463,196.833517 224.791938,196.326367 232.059851,189.592186 L259.755514,163.22029 Z" id="形状" fill="#006400"></path>
                <g id="LONDON-SUMMIT" transform="translate(3.000000, 329.000000)" fill="#006400" font-family="MicrosoftYaHei, Microsoft YaHei" font-size="37" font-weight="bold">
                    <g id="LONDON-SUMMIT">
                        <text>
                            <tspan x="0" y="39">LONDON SUMMIT</tspan>
                        </text>
                    </g>
                </g>
            </g>
        </g>
    </g>
</svg>